%TF.GenerationSoftware,KiCad,Pcbnew,9.0.6*%
%TF.CreationDate,2025-12-07T09:04:40+07:00*%
%TF.ProjectId,EnclosureBackPanels_AA202511001M3,456e636c-6f73-4757-9265-4261636b5061,1.0*%
%TF.SameCoordinates,Original*%
%TF.FileFunction,Drillmap*%
%TF.FilePolarity,Positive*%
%FSLAX45Y45*%
G04 Gerber Fmt 4.5, Leading zero omitted, Abs format (unit mm)*
G04 Created by KiCad (PCBNEW 9.0.6) date 2025-12-07 09:04:40*
%MOMM*%
%LPD*%
G01*
G04 APERTURE LIST*
%ADD10C,0.050000*%
%ADD11C,0.200000*%
G04 APERTURE END LIST*
D10*
X14530000Y-9243000D02*
G75*
G02*
X14698000Y-9075000I168000J0D01*
G01*
X14530000Y-9277000D02*
X14530000Y-9243000D01*
X15302000Y-9445000D02*
X14698000Y-9445000D01*
X12750000Y-10000000D02*
G75*
G02*
X12500000Y-9750000I0J250000D01*
G01*
X17500000Y-8250000D02*
X17500000Y-9750000D01*
X15470000Y-9277000D02*
G75*
G02*
X15302000Y-9445000I-168000J0D01*
G01*
X17250000Y-10000000D02*
X12750000Y-10000000D01*
X12500000Y-8250000D02*
G75*
G02*
X12750000Y-8000000I250000J0D01*
G01*
X17250000Y-8000000D02*
G75*
G02*
X17500000Y-8250000I0J-250000D01*
G01*
X12500000Y-9750000D02*
X12500000Y-8250000D01*
X17500000Y-9750000D02*
G75*
G02*
X17250000Y-10000000I-250000J0D01*
G01*
X15302000Y-9075000D02*
G75*
G02*
X15470000Y-9243000I0J-168000D01*
G01*
X12750000Y-8000000D02*
X17250000Y-8000000D01*
X14698000Y-9075000D02*
X15302000Y-9075000D01*
X15470000Y-9243000D02*
X15470000Y-9277000D01*
X14698000Y-9445000D02*
G75*
G02*
X14530000Y-9277000I0J168000D01*
G01*
D11*
X12758277Y-10313984D02*
X12758277Y-10113984D01*
X12758277Y-10113984D02*
X12805896Y-10113984D01*
X12805896Y-10113984D02*
X12834467Y-10123508D01*
X12834467Y-10123508D02*
X12853515Y-10142555D01*
X12853515Y-10142555D02*
X12863039Y-10161603D01*
X12863039Y-10161603D02*
X12872562Y-10199698D01*
X12872562Y-10199698D02*
X12872562Y-10228270D01*
X12872562Y-10228270D02*
X12863039Y-10266365D01*
X12863039Y-10266365D02*
X12853515Y-10285412D01*
X12853515Y-10285412D02*
X12834467Y-10304460D01*
X12834467Y-10304460D02*
X12805896Y-10313984D01*
X12805896Y-10313984D02*
X12758277Y-10313984D01*
X12958277Y-10313984D02*
X12958277Y-10180650D01*
X12958277Y-10218746D02*
X12967801Y-10199698D01*
X12967801Y-10199698D02*
X12977324Y-10190174D01*
X12977324Y-10190174D02*
X12996372Y-10180650D01*
X12996372Y-10180650D02*
X13015420Y-10180650D01*
X13082086Y-10313984D02*
X13082086Y-10180650D01*
X13082086Y-10113984D02*
X13072562Y-10123508D01*
X13072562Y-10123508D02*
X13082086Y-10133031D01*
X13082086Y-10133031D02*
X13091610Y-10123508D01*
X13091610Y-10123508D02*
X13082086Y-10113984D01*
X13082086Y-10113984D02*
X13082086Y-10133031D01*
X13205896Y-10313984D02*
X13186848Y-10304460D01*
X13186848Y-10304460D02*
X13177324Y-10285412D01*
X13177324Y-10285412D02*
X13177324Y-10113984D01*
X13310658Y-10313984D02*
X13291610Y-10304460D01*
X13291610Y-10304460D02*
X13282086Y-10285412D01*
X13282086Y-10285412D02*
X13282086Y-10113984D01*
X13539229Y-10313984D02*
X13539229Y-10113984D01*
X13539229Y-10113984D02*
X13605896Y-10256841D01*
X13605896Y-10256841D02*
X13672562Y-10113984D01*
X13672562Y-10113984D02*
X13672562Y-10313984D01*
X13853515Y-10313984D02*
X13853515Y-10209222D01*
X13853515Y-10209222D02*
X13843991Y-10190174D01*
X13843991Y-10190174D02*
X13824943Y-10180650D01*
X13824943Y-10180650D02*
X13786848Y-10180650D01*
X13786848Y-10180650D02*
X13767801Y-10190174D01*
X13853515Y-10304460D02*
X13834467Y-10313984D01*
X13834467Y-10313984D02*
X13786848Y-10313984D01*
X13786848Y-10313984D02*
X13767801Y-10304460D01*
X13767801Y-10304460D02*
X13758277Y-10285412D01*
X13758277Y-10285412D02*
X13758277Y-10266365D01*
X13758277Y-10266365D02*
X13767801Y-10247317D01*
X13767801Y-10247317D02*
X13786848Y-10237793D01*
X13786848Y-10237793D02*
X13834467Y-10237793D01*
X13834467Y-10237793D02*
X13853515Y-10228270D01*
X13948753Y-10180650D02*
X13948753Y-10380650D01*
X13948753Y-10190174D02*
X13967801Y-10180650D01*
X13967801Y-10180650D02*
X14005896Y-10180650D01*
X14005896Y-10180650D02*
X14024943Y-10190174D01*
X14024943Y-10190174D02*
X14034467Y-10199698D01*
X14034467Y-10199698D02*
X14043991Y-10218746D01*
X14043991Y-10218746D02*
X14043991Y-10275889D01*
X14043991Y-10275889D02*
X14034467Y-10294936D01*
X14034467Y-10294936D02*
X14024943Y-10304460D01*
X14024943Y-10304460D02*
X14005896Y-10313984D01*
X14005896Y-10313984D02*
X13967801Y-10313984D01*
X13967801Y-10313984D02*
X13948753Y-10304460D01*
X14129705Y-10294936D02*
X14139229Y-10304460D01*
X14139229Y-10304460D02*
X14129705Y-10313984D01*
X14129705Y-10313984D02*
X14120182Y-10304460D01*
X14120182Y-10304460D02*
X14129705Y-10294936D01*
X14129705Y-10294936D02*
X14129705Y-10313984D01*
X14129705Y-10190174D02*
X14139229Y-10199698D01*
X14139229Y-10199698D02*
X14129705Y-10209222D01*
X14129705Y-10209222D02*
X14120182Y-10199698D01*
X14120182Y-10199698D02*
X14129705Y-10190174D01*
X14129705Y-10190174D02*
X14129705Y-10209222D01*
M02*
