%TF.GenerationSoftware,KiCad,Pcbnew,9.0.6*%
%TF.CreationDate,2025-12-07T09:04:38+07:00*%
%TF.ProjectId,EnclosureBackPanels_AA202511001M3,456e636c-6f73-4757-9265-4261636b5061,1.0*%
%TF.SameCoordinates,Original*%
%TF.FileFunction,Soldermask,Top*%
%TF.FilePolarity,Negative*%
%FSLAX46Y46*%
G04 Gerber Fmt 4.6, Leading zero omitted, Abs format (unit mm)*
G04 Created by KiCad (PCBNEW 9.0.6) date 2025-12-07 09:04:38*
%MOMM*%
%LPD*%
G01*
G04 APERTURE LIST*
%ADD10C,0.150000*%
%ADD11C,1.800000*%
%ADD12C,2.500000*%
G04 APERTURE END LIST*
D10*
G36*
X130162020Y-89631613D02*
G01*
X130162020Y-90361960D01*
X130571249Y-90361960D01*
X130617051Y-90368515D01*
X130648063Y-90386079D01*
X130668239Y-90413207D01*
X130674991Y-90446652D01*
X130668251Y-90480582D01*
X130648429Y-90506980D01*
X130617693Y-90523679D01*
X130571249Y-90530000D01*
X130081481Y-90530000D01*
X130037739Y-90526049D01*
X130006598Y-90515634D01*
X129984822Y-90500019D01*
X129969377Y-90478064D01*
X129959096Y-90446941D01*
X129955207Y-90403543D01*
X129955207Y-89631247D01*
X129958822Y-89590581D01*
X129968552Y-89560133D01*
X129983417Y-89537519D01*
X130004010Y-89520198D01*
X130028354Y-89509772D01*
X130057606Y-89506133D01*
X130087304Y-89509750D01*
X130112079Y-89520108D01*
X130133077Y-89537274D01*
X130148310Y-89559780D01*
X130158298Y-89590383D01*
X130162020Y-89631613D01*
G37*
G36*
X131290083Y-89510430D02*
G01*
X131360257Y-89522789D01*
X131423330Y-89542621D01*
X131480198Y-89569637D01*
X131533035Y-89604829D01*
X131578608Y-89646332D01*
X131617505Y-89694523D01*
X131650008Y-89750071D01*
X131681264Y-89829957D01*
X131700806Y-89920798D01*
X131707650Y-90024539D01*
X131703961Y-90101645D01*
X131693286Y-90171959D01*
X131676081Y-90236236D01*
X131651233Y-90297650D01*
X131619711Y-90352540D01*
X131581437Y-90401589D01*
X131536454Y-90444331D01*
X131485000Y-90479938D01*
X131426343Y-90508628D01*
X131364038Y-90528710D01*
X131294254Y-90541257D01*
X131215867Y-90545631D01*
X131138026Y-90541169D01*
X131067984Y-90528305D01*
X131004719Y-90507590D01*
X130945146Y-90478255D01*
X130893501Y-90442497D01*
X130848953Y-90400184D01*
X130811182Y-90351545D01*
X130779732Y-90296249D01*
X130754614Y-90233489D01*
X130737122Y-90167895D01*
X130726403Y-90097962D01*
X130722740Y-90023135D01*
X130932301Y-90023135D01*
X130937888Y-90105958D01*
X130953733Y-90177313D01*
X130980267Y-90241635D01*
X131014122Y-90291435D01*
X131056439Y-90331296D01*
X131103637Y-90359091D01*
X131156003Y-90375775D01*
X131214523Y-90381500D01*
X131264986Y-90377141D01*
X131312069Y-90364270D01*
X131356550Y-90342787D01*
X131395845Y-90313143D01*
X131430168Y-90273737D01*
X131459682Y-90222986D01*
X131480223Y-90167613D01*
X131493384Y-90101655D01*
X131498089Y-90023135D01*
X131493851Y-89950540D01*
X131481828Y-89887598D01*
X131462796Y-89832930D01*
X131435169Y-89782585D01*
X131401664Y-89742533D01*
X131362046Y-89711420D01*
X131316854Y-89688784D01*
X131267117Y-89675005D01*
X131211775Y-89670265D01*
X131153178Y-89676064D01*
X131100218Y-89693040D01*
X131052709Y-89720928D01*
X131012107Y-89759352D01*
X130979861Y-89807413D01*
X130953733Y-89870727D01*
X130937897Y-89941040D01*
X130932301Y-90023135D01*
X130722740Y-90023135D01*
X130726591Y-89946548D01*
X130737791Y-89875990D01*
X130755957Y-89810765D01*
X130781970Y-89748463D01*
X130814112Y-89693867D01*
X130852372Y-89646146D01*
X130897208Y-89604626D01*
X130948208Y-89570030D01*
X131006062Y-89542159D01*
X131067425Y-89522571D01*
X131135658Y-89510373D01*
X131211775Y-89506133D01*
X131290083Y-89510430D01*
G37*
G36*
X132560851Y-90369715D02*
G01*
X132400811Y-89777365D01*
X132238756Y-90369715D01*
X132208225Y-90467901D01*
X132192965Y-90495820D01*
X132168414Y-90521756D01*
X132136439Y-90539287D01*
X132092759Y-90545631D01*
X132056840Y-90541789D01*
X132029928Y-90531343D01*
X132007740Y-90514285D01*
X131989994Y-90491165D01*
X131976507Y-90463646D01*
X131965204Y-90429921D01*
X131948107Y-90364525D01*
X131781411Y-89690293D01*
X131769478Y-89634476D01*
X131766329Y-89600289D01*
X131773337Y-89563637D01*
X131794234Y-89533367D01*
X131825203Y-89513034D01*
X131863232Y-89506133D01*
X131898832Y-89510737D01*
X131923096Y-89522974D01*
X131939192Y-89542281D01*
X131956230Y-89582808D01*
X131973080Y-89646268D01*
X132102529Y-90222864D01*
X132247304Y-89683759D01*
X132276796Y-89587772D01*
X132293856Y-89557166D01*
X132319722Y-89530436D01*
X132353427Y-89512668D01*
X132400811Y-89506133D01*
X132434574Y-89509283D01*
X132460964Y-89517939D01*
X132481594Y-89531474D01*
X132506435Y-89558516D01*
X132521406Y-89586428D01*
X132550959Y-89683759D01*
X132697138Y-90222925D01*
X132826526Y-89646268D01*
X132844722Y-89574277D01*
X132856398Y-89549570D01*
X132874642Y-89527077D01*
X132899510Y-89511794D01*
X132936374Y-89506133D01*
X132973906Y-89512914D01*
X133005006Y-89533000D01*
X133026139Y-89563058D01*
X133033278Y-89600289D01*
X133030233Y-89632451D01*
X133018196Y-89690293D01*
X132851500Y-90364525D01*
X132823046Y-90464909D01*
X132807807Y-90494782D01*
X132784211Y-90521329D01*
X132752721Y-90539053D01*
X132706847Y-90545631D01*
X132663142Y-90539360D01*
X132631193Y-90522062D01*
X132606678Y-90496519D01*
X132591687Y-90469244D01*
X132560851Y-90369715D01*
G37*
G36*
X147860642Y-96412650D02*
G01*
X147860642Y-95931064D01*
X147864255Y-95890482D01*
X147873985Y-95860094D01*
X147888852Y-95837519D01*
X147909444Y-95820198D01*
X147933789Y-95809772D01*
X147963040Y-95806133D01*
X147993637Y-95809826D01*
X148018604Y-95820303D01*
X148039244Y-95837519D01*
X148054111Y-95860132D01*
X148063841Y-95890562D01*
X148067454Y-95931186D01*
X148067454Y-96424251D01*
X148072553Y-96504347D01*
X148086078Y-96564019D01*
X148101893Y-96598878D01*
X148123719Y-96627499D01*
X148151962Y-96650725D01*
X148184994Y-96666857D01*
X148228357Y-96677541D01*
X148284769Y-96681500D01*
X148344068Y-96676821D01*
X148389803Y-96664122D01*
X148424851Y-96644721D01*
X148451343Y-96618913D01*
X148476644Y-96574353D01*
X148493651Y-96512597D01*
X148500069Y-96428342D01*
X148500069Y-95931186D01*
X148503664Y-95890068D01*
X148513293Y-95859583D01*
X148527913Y-95837213D01*
X148548313Y-95820121D01*
X148572756Y-95809768D01*
X148602468Y-95806133D01*
X148632175Y-95809738D01*
X148656950Y-95820058D01*
X148677939Y-95837152D01*
X148693176Y-95859579D01*
X148703162Y-95890064D01*
X148706882Y-95931125D01*
X148706882Y-96413016D01*
X148700566Y-96525814D01*
X148683862Y-96609876D01*
X148664163Y-96660016D01*
X148635443Y-96706083D01*
X148596973Y-96748667D01*
X148558399Y-96779280D01*
X148515957Y-96803806D01*
X148469173Y-96822428D01*
X148392965Y-96839460D01*
X148299118Y-96845631D01*
X148222003Y-96842564D01*
X148155973Y-96833961D01*
X148099633Y-96820596D01*
X148045888Y-96800161D01*
X148000739Y-96774228D01*
X147963040Y-96742927D01*
X147931481Y-96705463D01*
X147905566Y-96660957D01*
X147885371Y-96608349D01*
X147867292Y-96522045D01*
X147860642Y-96412650D01*
G37*
G36*
X149687151Y-96526467D02*
G01*
X149681792Y-96585920D01*
X149666085Y-96640247D01*
X149640012Y-96690537D01*
X149604610Y-96734712D01*
X149559210Y-96772625D01*
X149502320Y-96804476D01*
X149440596Y-96826685D01*
X149369561Y-96840695D01*
X149287630Y-96845631D01*
X149189706Y-96838736D01*
X149108868Y-96819525D01*
X149042105Y-96789516D01*
X148999082Y-96759467D01*
X148961980Y-96723570D01*
X148930364Y-96681378D01*
X148905705Y-96634818D01*
X148891825Y-96591193D01*
X148887377Y-96549609D01*
X148893930Y-96514672D01*
X148913572Y-96485129D01*
X148943004Y-96465109D01*
X148980190Y-96458262D01*
X149010719Y-96463569D01*
X149035694Y-96479145D01*
X149055818Y-96503598D01*
X149074284Y-96540755D01*
X149094788Y-96585906D01*
X149115256Y-96620195D01*
X149141185Y-96648728D01*
X149177172Y-96672646D01*
X149220807Y-96687566D01*
X149282135Y-96693224D01*
X149340512Y-96688163D01*
X149388210Y-96674034D01*
X149427337Y-96651702D01*
X149459022Y-96620826D01*
X149477044Y-96586847D01*
X149483086Y-96548326D01*
X149479558Y-96516823D01*
X149469522Y-96490656D01*
X149453105Y-96468642D01*
X149419452Y-96442063D01*
X149375252Y-96421687D01*
X149246903Y-96386943D01*
X149143644Y-96358186D01*
X149065614Y-96327653D01*
X149019478Y-96301685D01*
X148981073Y-96270761D01*
X148949537Y-96234719D01*
X148926174Y-96193494D01*
X148911661Y-96145262D01*
X148906550Y-96088356D01*
X148911722Y-96034235D01*
X148926849Y-95985251D01*
X148951980Y-95940284D01*
X148985843Y-95901326D01*
X149029098Y-95868218D01*
X149083260Y-95840877D01*
X149141498Y-95822142D01*
X149208260Y-95810303D01*
X149284883Y-95806133D01*
X149373891Y-95812298D01*
X149445045Y-95829214D01*
X149508286Y-95856787D01*
X149557336Y-95890458D01*
X149596998Y-95930769D01*
X149622732Y-95970753D01*
X149638455Y-96013134D01*
X149643431Y-96052941D01*
X149636994Y-96087825D01*
X149617236Y-96119619D01*
X149598194Y-96136218D01*
X149576726Y-96145964D01*
X149551962Y-96149295D01*
X149519455Y-96144519D01*
X149497862Y-96131770D01*
X149480119Y-96110805D01*
X149457990Y-96074740D01*
X149427128Y-96022821D01*
X149392960Y-95986263D01*
X149365783Y-95969985D01*
X149326555Y-95958883D01*
X149271205Y-95954633D01*
X149220248Y-95958825D01*
X149179084Y-95970448D01*
X149145786Y-95988644D01*
X149118440Y-96013995D01*
X149103265Y-96040803D01*
X149098281Y-96070160D01*
X149102390Y-96097841D01*
X149114340Y-96120963D01*
X149132954Y-96140487D01*
X149158792Y-96157965D01*
X149216495Y-96182390D01*
X149313398Y-96208279D01*
X149395964Y-96229630D01*
X149466966Y-96252060D01*
X149532274Y-96279425D01*
X149584263Y-96310434D01*
X149627426Y-96349355D01*
X149659918Y-96397445D01*
X149674550Y-96433564D01*
X149683846Y-96476157D01*
X149687151Y-96526467D01*
G37*
G36*
X150372821Y-95828078D02*
G01*
X150428000Y-95834588D01*
X150478657Y-95847841D01*
X150522827Y-95869026D01*
X150556502Y-95893037D01*
X150586209Y-95922882D01*
X150610516Y-95957275D01*
X150628218Y-95994994D01*
X150639032Y-96035340D01*
X150642690Y-96078403D01*
X150636670Y-96136140D01*
X150619414Y-96185466D01*
X150591128Y-96228178D01*
X150550705Y-96265369D01*
X150495839Y-96297306D01*
X150558601Y-96323091D01*
X150606757Y-96354553D01*
X150642826Y-96391403D01*
X150668456Y-96434105D01*
X150684276Y-96483832D01*
X150689829Y-96542342D01*
X150684903Y-96597486D01*
X150670458Y-96647980D01*
X150646475Y-96694811D01*
X150614095Y-96736179D01*
X150575342Y-96769350D01*
X150529483Y-96794951D01*
X150481261Y-96811037D01*
X150423787Y-96822123D01*
X150361762Y-96827885D01*
X150284813Y-96830000D01*
X149978838Y-96830000D01*
X149935083Y-96826003D01*
X149904184Y-96815498D01*
X149882789Y-96799774D01*
X149867714Y-96777715D01*
X149857690Y-96746726D01*
X149853907Y-96703848D01*
X149853907Y-96673684D01*
X150060659Y-96673684D01*
X150276631Y-96673684D01*
X150347293Y-96668286D01*
X150398437Y-96654043D01*
X150434736Y-96632966D01*
X150459620Y-96605635D01*
X150474875Y-96571089D01*
X150480329Y-96527016D01*
X150473978Y-96479872D01*
X150456416Y-96444623D01*
X150427756Y-96418267D01*
X150390972Y-96400879D01*
X150339743Y-96389007D01*
X150269792Y-96384501D01*
X150060659Y-96384501D01*
X150060659Y-96673684D01*
X149853907Y-96673684D01*
X149853907Y-96236001D01*
X150060659Y-96236001D01*
X150244513Y-96236001D01*
X150315608Y-96231934D01*
X150360833Y-96221896D01*
X150385872Y-96209692D01*
X150406472Y-96192022D01*
X150423176Y-96168224D01*
X150435754Y-96138640D01*
X150440029Y-96105270D01*
X150433412Y-96059069D01*
X150415610Y-96027472D01*
X150386784Y-96006474D01*
X150350209Y-95994101D01*
X150297353Y-95985362D01*
X150223386Y-95981988D01*
X150060659Y-95981988D01*
X150060659Y-96236001D01*
X149853907Y-96236001D01*
X149853907Y-95951824D01*
X149857817Y-95908090D01*
X149868114Y-95876993D01*
X149883522Y-95855287D01*
X149905240Y-95839828D01*
X149935992Y-95829555D01*
X149978838Y-95825673D01*
X150303253Y-95825673D01*
X150372821Y-95828078D01*
G37*
G36*
X151095760Y-96548632D02*
G01*
X150879849Y-96548632D01*
X150834125Y-96542249D01*
X150803707Y-96525307D01*
X150784148Y-96498731D01*
X150777512Y-96464979D01*
X150784036Y-96430550D01*
X150803035Y-96403979D01*
X150833061Y-96387060D01*
X150879849Y-96380593D01*
X151095760Y-96380593D01*
X151142539Y-96387062D01*
X151172513Y-96403979D01*
X151191560Y-96430555D01*
X151198098Y-96464979D01*
X151191689Y-96498817D01*
X151172941Y-96525307D01*
X151154719Y-96537547D01*
X151129709Y-96545614D01*
X151095760Y-96548632D01*
G37*
G36*
X152184656Y-96510835D02*
G01*
X152179064Y-96559412D01*
X152160903Y-96614944D01*
X152131360Y-96668970D01*
X152086409Y-96724670D01*
X152050368Y-96757564D01*
X152007429Y-96786707D01*
X151956716Y-96812048D01*
X151903080Y-96830220D01*
X151842180Y-96841631D01*
X151772862Y-96845631D01*
X151695340Y-96841707D01*
X151628210Y-96830610D01*
X151565488Y-96811252D01*
X151509813Y-96783960D01*
X151459373Y-96747691D01*
X151412055Y-96700368D01*
X151375362Y-96650432D01*
X151344094Y-96594244D01*
X151319628Y-96533940D01*
X151301962Y-96469070D01*
X151291511Y-96401291D01*
X151287918Y-96327775D01*
X151292076Y-96247428D01*
X151304036Y-96175281D01*
X151323211Y-96110338D01*
X151350596Y-96048546D01*
X151384321Y-95993981D01*
X151424450Y-95945901D01*
X151470919Y-95903945D01*
X151522206Y-95869366D01*
X151578811Y-95841854D01*
X151638691Y-95822111D01*
X151701358Y-95810174D01*
X151767367Y-95806133D01*
X151847603Y-95811801D01*
X151919676Y-95828190D01*
X151984865Y-95854799D01*
X152045380Y-95891140D01*
X152093566Y-95931289D01*
X152131045Y-95975272D01*
X152160600Y-96024939D01*
X152176817Y-96069799D01*
X152181908Y-96111132D01*
X152175684Y-96144475D01*
X152156751Y-96173963D01*
X152128861Y-96194404D01*
X152095935Y-96201135D01*
X152059745Y-96195946D01*
X152036339Y-96182267D01*
X152017247Y-96159356D01*
X151992437Y-96117909D01*
X151963264Y-96070655D01*
X151932409Y-96034210D01*
X151899869Y-96006962D01*
X151862816Y-95987037D01*
X151819588Y-95974633D01*
X151768771Y-95970265D01*
X151708772Y-95976415D01*
X151656853Y-95994127D01*
X151611305Y-96023240D01*
X151571057Y-96064848D01*
X151540725Y-96113351D01*
X151517739Y-96172843D01*
X151502853Y-96245547D01*
X151497479Y-96334125D01*
X151501543Y-96411643D01*
X151512791Y-96475614D01*
X151530085Y-96528176D01*
X151555714Y-96576683D01*
X151586410Y-96614602D01*
X151622287Y-96643459D01*
X151663507Y-96664292D01*
X151709685Y-96677071D01*
X151761933Y-96681500D01*
X151818433Y-96676408D01*
X151866825Y-96661882D01*
X151908661Y-96638391D01*
X151944422Y-96606172D01*
X151974589Y-96564461D01*
X151999153Y-96511568D01*
X152014397Y-96474045D01*
X152031699Y-96446050D01*
X152046545Y-96432391D01*
X152066888Y-96423723D01*
X152094591Y-96420526D01*
X152128959Y-96427010D01*
X152158094Y-96446477D01*
X152177953Y-96475360D01*
X152184656Y-96510835D01*
G37*
G36*
X135366407Y-90210835D02*
G01*
X135360815Y-90259412D01*
X135342655Y-90314944D01*
X135313112Y-90368970D01*
X135268161Y-90424670D01*
X135232120Y-90457564D01*
X135189180Y-90486707D01*
X135138468Y-90512048D01*
X135084831Y-90530220D01*
X135023932Y-90541631D01*
X134954614Y-90545631D01*
X134877091Y-90541707D01*
X134809961Y-90530610D01*
X134747240Y-90511252D01*
X134691564Y-90483960D01*
X134641124Y-90447691D01*
X134593806Y-90400368D01*
X134557113Y-90350432D01*
X134525846Y-90294244D01*
X134501380Y-90233940D01*
X134483714Y-90169070D01*
X134473263Y-90101291D01*
X134469670Y-90027775D01*
X134473828Y-89947428D01*
X134485788Y-89875281D01*
X134504963Y-89810338D01*
X134532348Y-89748546D01*
X134566073Y-89693981D01*
X134606202Y-89645901D01*
X134652670Y-89603945D01*
X134703958Y-89569366D01*
X134760563Y-89541854D01*
X134820443Y-89522111D01*
X134883109Y-89510174D01*
X134949118Y-89506133D01*
X135029354Y-89511801D01*
X135101427Y-89528190D01*
X135166617Y-89554799D01*
X135227132Y-89591140D01*
X135275318Y-89631289D01*
X135312796Y-89675272D01*
X135342351Y-89724939D01*
X135358568Y-89769799D01*
X135363660Y-89811132D01*
X135357436Y-89844475D01*
X135338503Y-89873963D01*
X135310612Y-89894404D01*
X135277686Y-89901135D01*
X135241497Y-89895946D01*
X135218091Y-89882267D01*
X135198998Y-89859356D01*
X135174188Y-89817909D01*
X135145016Y-89770655D01*
X135114161Y-89734210D01*
X135081620Y-89706962D01*
X135044567Y-89687037D01*
X135001339Y-89674633D01*
X134950523Y-89670265D01*
X134890523Y-89676415D01*
X134838604Y-89694127D01*
X134793057Y-89723240D01*
X134752808Y-89764848D01*
X134722476Y-89813351D01*
X134699491Y-89872843D01*
X134684605Y-89945547D01*
X134679230Y-90034125D01*
X134683294Y-90111643D01*
X134694543Y-90175614D01*
X134711837Y-90228176D01*
X134737466Y-90276683D01*
X134768162Y-90314602D01*
X134804038Y-90343459D01*
X134845258Y-90364292D01*
X134891437Y-90377071D01*
X134943684Y-90381500D01*
X135000184Y-90376408D01*
X135048577Y-90361882D01*
X135090413Y-90338391D01*
X135126174Y-90306172D01*
X135156341Y-90264461D01*
X135180905Y-90211568D01*
X135196148Y-90174045D01*
X135213450Y-90146050D01*
X135228297Y-90132391D01*
X135248640Y-90123723D01*
X135276343Y-90120526D01*
X135310710Y-90127010D01*
X135339846Y-90146477D01*
X135359704Y-90175360D01*
X135366407Y-90210835D01*
G37*
G36*
X135753044Y-89631186D02*
G01*
X135753044Y-89916461D01*
X136187002Y-89916461D01*
X136187002Y-89631186D01*
X136190616Y-89590562D01*
X136200345Y-89560132D01*
X136215212Y-89537519D01*
X136235805Y-89520198D01*
X136260149Y-89509772D01*
X136289401Y-89506133D01*
X136319108Y-89509738D01*
X136343883Y-89520058D01*
X136364872Y-89537152D01*
X136380112Y-89559578D01*
X136390096Y-89590045D01*
X136393815Y-89631064D01*
X136393815Y-90420029D01*
X136390072Y-90461024D01*
X136379995Y-90491632D01*
X136364567Y-90514307D01*
X136343346Y-90531631D01*
X136318651Y-90542023D01*
X136289401Y-90545631D01*
X136259739Y-90541932D01*
X136235296Y-90531373D01*
X136214846Y-90513879D01*
X136200171Y-90491072D01*
X136190566Y-90460504D01*
X136187002Y-90419846D01*
X136187002Y-90084501D01*
X135753044Y-90084501D01*
X135753044Y-90419846D01*
X135749300Y-90460925D01*
X135739221Y-90491593D01*
X135723796Y-90514307D01*
X135702575Y-90531631D01*
X135677879Y-90542023D01*
X135648630Y-90545631D01*
X135618963Y-90541938D01*
X135594521Y-90531397D01*
X135574075Y-90513941D01*
X135559400Y-90491171D01*
X135549796Y-90460645D01*
X135546231Y-90420029D01*
X135546231Y-89631064D01*
X135549770Y-89590423D01*
X135559282Y-89560038D01*
X135573770Y-89537519D01*
X135593986Y-89520292D01*
X135618503Y-89509824D01*
X135648630Y-89506133D01*
X135678337Y-89509738D01*
X135703112Y-89520058D01*
X135724101Y-89537152D01*
X135739341Y-89559616D01*
X135749326Y-89590124D01*
X135753044Y-89631186D01*
G37*
G36*
X137179788Y-89531535D02*
G01*
X137226841Y-89540550D01*
X137267716Y-89555226D01*
X137312362Y-89579326D01*
X137351613Y-89612074D01*
X137383698Y-89652017D01*
X137407056Y-89698047D01*
X137421250Y-89748205D01*
X137426046Y-89801789D01*
X137421686Y-89857458D01*
X137409315Y-89905030D01*
X137389545Y-89945914D01*
X137362360Y-89981186D01*
X137316039Y-90019632D01*
X137254705Y-90051239D01*
X137174904Y-90075219D01*
X137222578Y-90107486D01*
X137273822Y-90157773D01*
X137320528Y-90215791D01*
X137361810Y-90277269D01*
X137397389Y-90339724D01*
X137422138Y-90391758D01*
X137439691Y-90439560D01*
X137443754Y-90462405D01*
X137440644Y-90482248D01*
X137430809Y-90502705D01*
X137415642Y-90520449D01*
X137395577Y-90534152D01*
X137372052Y-90542651D01*
X137344103Y-90545631D01*
X137311433Y-90541356D01*
X137285729Y-90529328D01*
X137263896Y-90510962D01*
X137245245Y-90488173D01*
X137199694Y-90415511D01*
X137118361Y-90280200D01*
X137074548Y-90211181D01*
X137040448Y-90167238D01*
X137004580Y-90133606D01*
X136971083Y-90114359D01*
X136933360Y-90104020D01*
X136882362Y-90100132D01*
X136813241Y-90100132D01*
X136813241Y-90420029D01*
X136809529Y-90462007D01*
X136799633Y-90492747D01*
X136784665Y-90514979D01*
X136763941Y-90531876D01*
X136739506Y-90542071D01*
X136710232Y-90545631D01*
X136678727Y-90541822D01*
X136653689Y-90531126D01*
X136633600Y-90513696D01*
X136619296Y-90490814D01*
X136609948Y-90460425D01*
X136606489Y-90420334D01*
X136606489Y-89951632D01*
X136813241Y-89951632D01*
X136993004Y-89951632D01*
X137062877Y-89948217D01*
X137115308Y-89939176D01*
X137160108Y-89921708D01*
X137190596Y-89897044D01*
X137204471Y-89875802D01*
X137213293Y-89848997D01*
X137216486Y-89815101D01*
X137211153Y-89776356D01*
X137195603Y-89743232D01*
X137170982Y-89716288D01*
X137137779Y-89696826D01*
X137093990Y-89686708D01*
X136998438Y-89681988D01*
X136813241Y-89681988D01*
X136813241Y-89951632D01*
X136606489Y-89951632D01*
X136606489Y-89651641D01*
X136610409Y-89608485D01*
X136620785Y-89577495D01*
X136636409Y-89555593D01*
X136658388Y-89539971D01*
X136689479Y-89529594D01*
X136732763Y-89525673D01*
X137062674Y-89525673D01*
X137179788Y-89531535D01*
G37*
D11*
%TO.C,*%
X136000000Y-92250000D03*
%TD*%
D12*
%TO.C,H2*%
X127500000Y-82500000D03*
%TD*%
%TO.C,H1*%
X172500000Y-82500000D03*
%TD*%
%TO.C,H3*%
X127500000Y-97500000D03*
%TD*%
D11*
%TO.C,*%
X131400000Y-92250000D03*
%TD*%
%TO.C,*%
X136000000Y-92250000D03*
%TD*%
D12*
%TO.C,H4*%
X172500000Y-97500000D03*
%TD*%
M02*
