%TF.GenerationSoftware,KiCad,Pcbnew,9.0.6*%
%TF.CreationDate,2025-12-07T09:03:39+07:00*%
%TF.ProjectId,EnclosurePanels_AA202511001M2,456e636c-6f73-4757-9265-50616e656c73,1.0*%
%TF.SameCoordinates,Original*%
%TF.FileFunction,Soldermask,Bot*%
%TF.FilePolarity,Negative*%
%FSLAX46Y46*%
G04 Gerber Fmt 4.6, Leading zero omitted, Abs format (unit mm)*
G04 Created by KiCad (PCBNEW 9.0.6) date 2025-12-07 09:03:39*
%MOMM*%
%LPD*%
G01*
G04 APERTURE LIST*
%ADD10C,0.200000*%
%ADD11C,2.500000*%
%ADD12C,5.400000*%
%ADD13C,1.800000*%
%ADD14C,10.000000*%
G04 APERTURE END LIST*
D10*
X162898183Y-85581504D02*
X162421993Y-85581504D01*
X163029136Y-85867219D02*
X162570802Y-84867219D01*
X162570802Y-84867219D02*
X162362469Y-85867219D01*
X162041040Y-85581504D02*
X161564850Y-85581504D01*
X162171993Y-85867219D02*
X161713659Y-84867219D01*
X161713659Y-84867219D02*
X161505326Y-85867219D01*
X161124374Y-85486266D02*
X160362469Y-85486266D01*
X159868421Y-84962457D02*
X159814850Y-84914838D01*
X159814850Y-84914838D02*
X159713660Y-84867219D01*
X159713660Y-84867219D02*
X159475564Y-84867219D01*
X159475564Y-84867219D02*
X159386279Y-84914838D01*
X159386279Y-84914838D02*
X159344612Y-84962457D01*
X159344612Y-84962457D02*
X159308898Y-85057695D01*
X159308898Y-85057695D02*
X159320802Y-85152933D01*
X159320802Y-85152933D02*
X159386279Y-85295790D01*
X159386279Y-85295790D02*
X160029136Y-85867219D01*
X160029136Y-85867219D02*
X159410088Y-85867219D01*
X158666040Y-84867219D02*
X158570802Y-84867219D01*
X158570802Y-84867219D02*
X158481517Y-84914838D01*
X158481517Y-84914838D02*
X158439850Y-84962457D01*
X158439850Y-84962457D02*
X158404136Y-85057695D01*
X158404136Y-85057695D02*
X158380326Y-85248171D01*
X158380326Y-85248171D02*
X158410088Y-85486266D01*
X158410088Y-85486266D02*
X158481517Y-85676742D01*
X158481517Y-85676742D02*
X158541040Y-85771980D01*
X158541040Y-85771980D02*
X158594612Y-85819600D01*
X158594612Y-85819600D02*
X158695802Y-85867219D01*
X158695802Y-85867219D02*
X158791040Y-85867219D01*
X158791040Y-85867219D02*
X158880326Y-85819600D01*
X158880326Y-85819600D02*
X158921993Y-85771980D01*
X158921993Y-85771980D02*
X158957707Y-85676742D01*
X158957707Y-85676742D02*
X158981517Y-85486266D01*
X158981517Y-85486266D02*
X158951755Y-85248171D01*
X158951755Y-85248171D02*
X158880326Y-85057695D01*
X158880326Y-85057695D02*
X158820802Y-84962457D01*
X158820802Y-84962457D02*
X158767231Y-84914838D01*
X158767231Y-84914838D02*
X158666040Y-84867219D01*
X157963659Y-84962457D02*
X157910088Y-84914838D01*
X157910088Y-84914838D02*
X157808898Y-84867219D01*
X157808898Y-84867219D02*
X157570802Y-84867219D01*
X157570802Y-84867219D02*
X157481517Y-84914838D01*
X157481517Y-84914838D02*
X157439850Y-84962457D01*
X157439850Y-84962457D02*
X157404136Y-85057695D01*
X157404136Y-85057695D02*
X157416040Y-85152933D01*
X157416040Y-85152933D02*
X157481517Y-85295790D01*
X157481517Y-85295790D02*
X158124374Y-85867219D01*
X158124374Y-85867219D02*
X157505326Y-85867219D01*
X156475564Y-84867219D02*
X156951755Y-84867219D01*
X156951755Y-84867219D02*
X157058898Y-85343409D01*
X157058898Y-85343409D02*
X157005326Y-85295790D01*
X157005326Y-85295790D02*
X156904136Y-85248171D01*
X156904136Y-85248171D02*
X156666040Y-85248171D01*
X156666040Y-85248171D02*
X156576755Y-85295790D01*
X156576755Y-85295790D02*
X156535088Y-85343409D01*
X156535088Y-85343409D02*
X156499374Y-85438647D01*
X156499374Y-85438647D02*
X156529136Y-85676742D01*
X156529136Y-85676742D02*
X156588659Y-85771980D01*
X156588659Y-85771980D02*
X156642231Y-85819600D01*
X156642231Y-85819600D02*
X156743421Y-85867219D01*
X156743421Y-85867219D02*
X156981517Y-85867219D01*
X156981517Y-85867219D02*
X157070802Y-85819600D01*
X157070802Y-85819600D02*
X157112469Y-85771980D01*
X156076755Y-85486266D02*
X155314850Y-85486266D01*
X154362469Y-85867219D02*
X154933898Y-85867219D01*
X154648183Y-85867219D02*
X154523183Y-84867219D01*
X154523183Y-84867219D02*
X154636279Y-85010076D01*
X154636279Y-85010076D02*
X154743422Y-85105314D01*
X154743422Y-85105314D02*
X154844612Y-85152933D01*
X153410088Y-85867219D02*
X153981517Y-85867219D01*
X153695802Y-85867219D02*
X153570802Y-84867219D01*
X153570802Y-84867219D02*
X153683898Y-85010076D01*
X153683898Y-85010076D02*
X153791041Y-85105314D01*
X153791041Y-85105314D02*
X153892231Y-85152933D01*
X152933898Y-85486266D02*
X152171993Y-85486266D01*
X151427945Y-84867219D02*
X151332707Y-84867219D01*
X151332707Y-84867219D02*
X151243422Y-84914838D01*
X151243422Y-84914838D02*
X151201755Y-84962457D01*
X151201755Y-84962457D02*
X151166041Y-85057695D01*
X151166041Y-85057695D02*
X151142231Y-85248171D01*
X151142231Y-85248171D02*
X151171993Y-85486266D01*
X151171993Y-85486266D02*
X151243422Y-85676742D01*
X151243422Y-85676742D02*
X151302945Y-85771980D01*
X151302945Y-85771980D02*
X151356517Y-85819600D01*
X151356517Y-85819600D02*
X151457707Y-85867219D01*
X151457707Y-85867219D02*
X151552945Y-85867219D01*
X151552945Y-85867219D02*
X151642231Y-85819600D01*
X151642231Y-85819600D02*
X151683898Y-85771980D01*
X151683898Y-85771980D02*
X151719612Y-85676742D01*
X151719612Y-85676742D02*
X151743422Y-85486266D01*
X151743422Y-85486266D02*
X151713660Y-85248171D01*
X151713660Y-85248171D02*
X151642231Y-85057695D01*
X151642231Y-85057695D02*
X151582707Y-84962457D01*
X151582707Y-84962457D02*
X151529136Y-84914838D01*
X151529136Y-84914838D02*
X151427945Y-84867219D01*
X150475564Y-84867219D02*
X150380326Y-84867219D01*
X150380326Y-84867219D02*
X150291041Y-84914838D01*
X150291041Y-84914838D02*
X150249374Y-84962457D01*
X150249374Y-84962457D02*
X150213660Y-85057695D01*
X150213660Y-85057695D02*
X150189850Y-85248171D01*
X150189850Y-85248171D02*
X150219612Y-85486266D01*
X150219612Y-85486266D02*
X150291041Y-85676742D01*
X150291041Y-85676742D02*
X150350564Y-85771980D01*
X150350564Y-85771980D02*
X150404136Y-85819600D01*
X150404136Y-85819600D02*
X150505326Y-85867219D01*
X150505326Y-85867219D02*
X150600564Y-85867219D01*
X150600564Y-85867219D02*
X150689850Y-85819600D01*
X150689850Y-85819600D02*
X150731517Y-85771980D01*
X150731517Y-85771980D02*
X150767231Y-85676742D01*
X150767231Y-85676742D02*
X150791041Y-85486266D01*
X150791041Y-85486266D02*
X150761279Y-85248171D01*
X150761279Y-85248171D02*
X150689850Y-85057695D01*
X150689850Y-85057695D02*
X150630326Y-84962457D01*
X150630326Y-84962457D02*
X150576755Y-84914838D01*
X150576755Y-84914838D02*
X150475564Y-84867219D01*
X149314850Y-85867219D02*
X149886279Y-85867219D01*
X149600564Y-85867219D02*
X149475564Y-84867219D01*
X149475564Y-84867219D02*
X149588660Y-85010076D01*
X149588660Y-85010076D02*
X149695803Y-85105314D01*
X149695803Y-85105314D02*
X149796993Y-85152933D01*
X148838660Y-85486266D02*
X148076755Y-85486266D01*
X147648184Y-85867219D02*
X147523184Y-84867219D01*
X147523184Y-84867219D02*
X147279136Y-85581504D01*
X147279136Y-85581504D02*
X146856517Y-84867219D01*
X146856517Y-84867219D02*
X146981517Y-85867219D01*
X146439850Y-84962457D02*
X146386279Y-84914838D01*
X146386279Y-84914838D02*
X146285089Y-84867219D01*
X146285089Y-84867219D02*
X146046993Y-84867219D01*
X146046993Y-84867219D02*
X145957708Y-84914838D01*
X145957708Y-84914838D02*
X145916041Y-84962457D01*
X145916041Y-84962457D02*
X145880327Y-85057695D01*
X145880327Y-85057695D02*
X145892231Y-85152933D01*
X145892231Y-85152933D02*
X145957708Y-85295790D01*
X145957708Y-85295790D02*
X146600565Y-85867219D01*
X146600565Y-85867219D02*
X145981517Y-85867219D01*
X162487469Y-83093409D02*
X162820802Y-83093409D01*
X162886279Y-83617219D02*
X162761279Y-82617219D01*
X162761279Y-82617219D02*
X162285088Y-82617219D01*
X161457707Y-83617219D02*
X161731517Y-83141028D01*
X162029136Y-83617219D02*
X161904136Y-82617219D01*
X161904136Y-82617219D02*
X161523183Y-82617219D01*
X161523183Y-82617219D02*
X161433898Y-82664838D01*
X161433898Y-82664838D02*
X161392231Y-82712457D01*
X161392231Y-82712457D02*
X161356517Y-82807695D01*
X161356517Y-82807695D02*
X161374374Y-82950552D01*
X161374374Y-82950552D02*
X161433898Y-83045790D01*
X161433898Y-83045790D02*
X161487469Y-83093409D01*
X161487469Y-83093409D02*
X161588659Y-83141028D01*
X161588659Y-83141028D02*
X161969612Y-83141028D01*
X160713659Y-82617219D02*
X160523183Y-82617219D01*
X160523183Y-82617219D02*
X160433898Y-82664838D01*
X160433898Y-82664838D02*
X160350564Y-82760076D01*
X160350564Y-82760076D02*
X160326755Y-82950552D01*
X160326755Y-82950552D02*
X160368421Y-83283885D01*
X160368421Y-83283885D02*
X160439850Y-83474361D01*
X160439850Y-83474361D02*
X160546993Y-83569600D01*
X160546993Y-83569600D02*
X160648183Y-83617219D01*
X160648183Y-83617219D02*
X160838659Y-83617219D01*
X160838659Y-83617219D02*
X160927945Y-83569600D01*
X160927945Y-83569600D02*
X161011279Y-83474361D01*
X161011279Y-83474361D02*
X161035088Y-83283885D01*
X161035088Y-83283885D02*
X160993421Y-82950552D01*
X160993421Y-82950552D02*
X160921993Y-82760076D01*
X160921993Y-82760076D02*
X160814850Y-82664838D01*
X160814850Y-82664838D02*
X160713659Y-82617219D01*
X159981517Y-83617219D02*
X159856517Y-82617219D01*
X159856517Y-82617219D02*
X159410088Y-83617219D01*
X159410088Y-83617219D02*
X159285088Y-82617219D01*
X158951755Y-82617219D02*
X158380326Y-82617219D01*
X158791041Y-83617219D02*
X158666041Y-82617219D01*
X157410088Y-83617219D02*
X157285088Y-82617219D01*
X157285088Y-82617219D02*
X156904135Y-82617219D01*
X156904135Y-82617219D02*
X156814850Y-82664838D01*
X156814850Y-82664838D02*
X156773183Y-82712457D01*
X156773183Y-82712457D02*
X156737469Y-82807695D01*
X156737469Y-82807695D02*
X156755326Y-82950552D01*
X156755326Y-82950552D02*
X156814850Y-83045790D01*
X156814850Y-83045790D02*
X156868421Y-83093409D01*
X156868421Y-83093409D02*
X156969611Y-83141028D01*
X156969611Y-83141028D02*
X157350564Y-83141028D01*
X156421992Y-83331504D02*
X155945802Y-83331504D01*
X156552945Y-83617219D02*
X156094611Y-82617219D01*
X156094611Y-82617219D02*
X155886278Y-83617219D01*
X155552945Y-83617219D02*
X155427945Y-82617219D01*
X155427945Y-82617219D02*
X154981516Y-83617219D01*
X154981516Y-83617219D02*
X154856516Y-82617219D01*
X154439849Y-83093409D02*
X154106516Y-83093409D01*
X154029135Y-83617219D02*
X154505326Y-83617219D01*
X154505326Y-83617219D02*
X154380326Y-82617219D01*
X154380326Y-82617219D02*
X153904135Y-82617219D01*
X153124373Y-83617219D02*
X153600564Y-83617219D01*
X153600564Y-83617219D02*
X153475564Y-82617219D01*
D11*
%TO.C,H2*%
X127500000Y-82500000D03*
%TD*%
%TO.C,H1*%
X172500000Y-82500000D03*
%TD*%
D12*
%TO.C,*%
X161500000Y-91750000D03*
%TD*%
D11*
%TO.C,H3*%
X127500000Y-97500000D03*
%TD*%
D13*
%TO.C,*%
X169750000Y-93350000D03*
%TD*%
D12*
%TO.C,*%
X149500000Y-91750000D03*
%TD*%
D11*
%TO.C,H4*%
X172500000Y-97500000D03*
%TD*%
D14*
%TO.C,Dial_Scale\u002A\u002A*%
X135500000Y-87750000D03*
%TD*%
M02*
