%TF.GenerationSoftware,KiCad,Pcbnew,9.0.6*%
%TF.CreationDate,2025-12-07T09:03:39+07:00*%
%TF.ProjectId,EnclosurePanels_AA202511001M2,456e636c-6f73-4757-9265-50616e656c73,1.0*%
%TF.SameCoordinates,Original*%
%TF.FileFunction,Soldermask,Top*%
%TF.FilePolarity,Negative*%
%FSLAX46Y46*%
G04 Gerber Fmt 4.6, Leading zero omitted, Abs format (unit mm)*
G04 Created by KiCad (PCBNEW 9.0.6) date 2025-12-07 09:03:39*
%MOMM*%
%LPD*%
G01*
G04 APERTURE LIST*
%ADD10C,0.200000*%
%ADD11C,0.300000*%
%ADD12C,0.150000*%
%ADD13C,0.000000*%
%ADD14C,2.500000*%
%ADD15C,5.400000*%
%ADD16C,1.800000*%
%ADD17C,10.000000*%
G04 APERTURE END LIST*
D10*
X145969670Y-84250000D02*
X145969670Y-82875000D01*
X156000000Y-87750000D02*
X156000000Y-90750000D01*
X152002333Y-86750008D02*
X144750000Y-86750000D01*
X144750000Y-84999999D02*
X145250000Y-85000000D01*
X145969670Y-84249999D02*
G75*
G02*
X145219669Y-84999970I-749970J-1D01*
G01*
X144000000Y-85750000D02*
G75*
G02*
X144750000Y-85000000I750000J0D01*
G01*
X151249998Y-89000000D02*
G75*
G02*
X151208346Y-94526067I-1749998J-2750000D01*
G01*
X145469670Y-82875000D02*
G75*
G02*
X146469670Y-82875000I500000J0D01*
G01*
X144000000Y-87625000D02*
X144500000Y-88375000D01*
X152002333Y-86750008D02*
X152375000Y-86750000D01*
X163249906Y-88975432D02*
G75*
G02*
X163208226Y-94501453I-1750006J-2749968D01*
G01*
X145000000Y-91750000D02*
G75*
G02*
X144000000Y-90750000I0J1000000D01*
G01*
X144000000Y-87625000D02*
X143500000Y-88375000D01*
X155000000Y-86750000D02*
X154625000Y-86750000D01*
X147791652Y-94526067D02*
G75*
G02*
X147750000Y-89000000I1708348J2776067D01*
G01*
X157000000Y-91750000D02*
X158240399Y-91750000D01*
X144000000Y-87625000D02*
X144000000Y-90750000D01*
X132477469Y-92987060D02*
X130450000Y-96500000D01*
X144750000Y-86750000D02*
G75*
G02*
X143250000Y-86750000I-750000J0D01*
G01*
X143250000Y-86750000D02*
G75*
G02*
X144750000Y-86750000I750000J0D01*
G01*
X155000000Y-86750000D02*
G75*
G02*
X156000000Y-87750000I0J-1000000D01*
G01*
X145000000Y-91750000D02*
X146240399Y-91750000D01*
X157000000Y-91750000D02*
G75*
G02*
X156000000Y-90750000I0J1000000D01*
G01*
X144000000Y-85750000D02*
X144000000Y-86000000D01*
X159791652Y-94526067D02*
G75*
G02*
X159750000Y-89000000I1708348J2776067D01*
G01*
X152375000Y-85500000D02*
X152375000Y-88000000D01*
X144469670Y-82875000D02*
G75*
G02*
X145969670Y-81374970I1500030J0D01*
G01*
X144969670Y-82875000D02*
G75*
G02*
X146524396Y-82042911I1000030J0D01*
G01*
X152375000Y-88000000D02*
X154625000Y-86750000D01*
X152375000Y-85500000D02*
X154625000Y-86750000D01*
D11*
G36*
X150833966Y-81944317D02*
G01*
X150901367Y-81975812D01*
X150952407Y-82026835D01*
X150984527Y-82092996D01*
X150999768Y-82183873D01*
X150993196Y-82308080D01*
X150340334Y-82308080D01*
X150385967Y-82190208D01*
X150440475Y-82098644D01*
X150503122Y-82028911D01*
X150578611Y-81974927D01*
X150658435Y-81943471D01*
X150744801Y-81932923D01*
X150833966Y-81944317D01*
G37*
G36*
X153912242Y-81957142D02*
G01*
X153975477Y-81981181D01*
X154026575Y-82019874D01*
X154067480Y-82074829D01*
X154099819Y-82161850D01*
X154109753Y-82276845D01*
X154090928Y-82429103D01*
X154048776Y-82574692D01*
X153991347Y-82690778D01*
X153919836Y-82782400D01*
X153830852Y-82854364D01*
X153735888Y-82895959D01*
X153631873Y-82909895D01*
X153561904Y-82903008D01*
X153504129Y-82883591D01*
X153456018Y-82852376D01*
X153417342Y-82809976D01*
X153387896Y-82755409D01*
X153368091Y-82685924D01*
X153360283Y-82572605D01*
X153378105Y-82430812D01*
X153418840Y-82289720D01*
X153475680Y-82172281D01*
X153550668Y-82073249D01*
X153634926Y-82005097D01*
X153731119Y-81962606D01*
X153833374Y-81948555D01*
X153912242Y-81957142D01*
G37*
G36*
X157272734Y-81970563D02*
G01*
X157346685Y-82012058D01*
X157386160Y-82053143D01*
X157417271Y-82106082D01*
X157439741Y-82173381D01*
X157450888Y-82284103D01*
X157434124Y-82426538D01*
X157390738Y-82574751D01*
X157332519Y-82688489D01*
X157256626Y-82781552D01*
X157174371Y-82843705D01*
X157082759Y-82881854D01*
X156989846Y-82894263D01*
X156901863Y-82880764D01*
X156828401Y-82841385D01*
X156789242Y-82801921D01*
X156758571Y-82750197D01*
X156736688Y-82683482D01*
X156726501Y-82573051D01*
X156744138Y-82428248D01*
X156783520Y-82292446D01*
X156839148Y-82178510D01*
X156912356Y-82081795D01*
X156994609Y-82013646D01*
X157087761Y-81970430D01*
X157183775Y-81956371D01*
X157272734Y-81970563D01*
G37*
G36*
X148996852Y-82278283D02*
G01*
X149091326Y-82302155D01*
X149154535Y-82336290D01*
X149198709Y-82387347D01*
X149218904Y-82456750D01*
X149211933Y-82553178D01*
X149182974Y-82641343D01*
X149137889Y-82711670D01*
X149076061Y-82767326D01*
X148994571Y-82809485D01*
X148888558Y-82837170D01*
X148751657Y-82847369D01*
X148330094Y-82847369D01*
X148450383Y-82269002D01*
X148860101Y-82269002D01*
X148996852Y-82278283D01*
G37*
G36*
X149081480Y-81470888D02*
G01*
X149180608Y-81488461D01*
X149245638Y-81512826D01*
X149283060Y-81541579D01*
X149306326Y-81581184D01*
X149315919Y-81635251D01*
X149308408Y-81709685D01*
X149286372Y-81776133D01*
X149249180Y-81836081D01*
X149182663Y-81903303D01*
X149104344Y-81943792D01*
X149010552Y-81964002D01*
X148870725Y-81972002D01*
X148512055Y-81972002D01*
X148617690Y-81463977D01*
X148936671Y-81463977D01*
X149081480Y-81470888D01*
G37*
G36*
X158265617Y-83968404D02*
G01*
X147680258Y-83968404D01*
X147680258Y-83637438D01*
X151226910Y-83637438D01*
X151245113Y-83679697D01*
X151283845Y-83709912D01*
X151369878Y-83735445D01*
X151519661Y-83746182D01*
X151629058Y-83739766D01*
X151719183Y-83721983D01*
X151793213Y-83694525D01*
X151893865Y-83632042D01*
X151980547Y-83546636D01*
X152059010Y-83439947D01*
X152156402Y-83282121D01*
X152556589Y-82593720D01*
X152983244Y-82593720D01*
X152990736Y-82736605D01*
X153011646Y-82827038D01*
X153044309Y-82907239D01*
X153088555Y-82978649D01*
X153144187Y-83041474D01*
X153209836Y-83093860D01*
X153286636Y-83136308D01*
X153369552Y-83165959D01*
X153464996Y-83184669D01*
X153575087Y-83191263D01*
X153738679Y-83177481D01*
X153888206Y-83137163D01*
X154026813Y-83071157D01*
X154079372Y-83033398D01*
X154634293Y-83033398D01*
X154640826Y-83088885D01*
X154659281Y-83130935D01*
X154689927Y-83164158D01*
X154729163Y-83184155D01*
X154779815Y-83191263D01*
X154857907Y-83177015D01*
X154927215Y-83133743D01*
X154963889Y-83091460D01*
X154993436Y-83035205D01*
X155015143Y-82961674D01*
X155112229Y-82494804D01*
X155163804Y-82286392D01*
X155203332Y-82184616D01*
X155270875Y-82091980D01*
X155353419Y-82023049D01*
X155447653Y-81978461D01*
X155541486Y-81964187D01*
X155632661Y-81976856D01*
X155687489Y-82009246D01*
X155717463Y-82059930D01*
X155728929Y-82124556D01*
X155727668Y-82214918D01*
X155708670Y-82338855D01*
X155579466Y-82959965D01*
X155571037Y-83033554D01*
X155577605Y-83089007D01*
X155596074Y-83131057D01*
X155626721Y-83164036D01*
X155666758Y-83184077D01*
X155719295Y-83191263D01*
X155795952Y-83176873D01*
X155864009Y-83133011D01*
X155915477Y-83064307D01*
X155950593Y-82961552D01*
X156030144Y-82578762D01*
X156349767Y-82578762D01*
X156350907Y-82723660D01*
X156376217Y-82859277D01*
X156423813Y-82971688D01*
X156469053Y-83037352D01*
X156522538Y-83091203D01*
X156584891Y-83134354D01*
X156654093Y-83165481D01*
X156731113Y-83184631D01*
X156817533Y-83191263D01*
X156915275Y-83184086D01*
X157006943Y-83162930D01*
X157094590Y-83128451D01*
X157179989Y-83080376D01*
X157261604Y-83021156D01*
X157345830Y-82947875D01*
X157340701Y-82972665D01*
X157332820Y-83042056D01*
X157339282Y-83094422D01*
X157357187Y-83134232D01*
X157386660Y-83165643D01*
X157424170Y-83184550D01*
X157472348Y-83191263D01*
X157545258Y-83177849D01*
X157610101Y-83137041D01*
X157659218Y-83072637D01*
X157692777Y-82975108D01*
X158034717Y-81330132D01*
X158043395Y-81258913D01*
X158038234Y-81206459D01*
X158022505Y-81167833D01*
X157995208Y-81137911D01*
X157956692Y-81119181D01*
X157902948Y-81112267D01*
X157849063Y-81119046D01*
X157802145Y-81138827D01*
X157760432Y-81172229D01*
X157712890Y-81242245D01*
X157678367Y-81348572D01*
X157565160Y-81892745D01*
X157483156Y-81797072D01*
X157392847Y-81730324D01*
X157325428Y-81701018D01*
X157241242Y-81681943D01*
X157136514Y-81675003D01*
X157003427Y-81687250D01*
X156880052Y-81723385D01*
X156764063Y-81783811D01*
X156653768Y-81870642D01*
X156561213Y-81973835D01*
X156483274Y-82097071D01*
X156420062Y-82243218D01*
X156372644Y-82415914D01*
X156350569Y-82573051D01*
X156349767Y-82578762D01*
X156030144Y-82578762D01*
X156094696Y-82268147D01*
X156126081Y-82065303D01*
X156124881Y-81987357D01*
X156109961Y-81916681D01*
X156080587Y-81842616D01*
X156036519Y-81781856D01*
X155976605Y-81732400D01*
X155906337Y-81697004D01*
X155824881Y-81674944D01*
X155729797Y-81667187D01*
X155631732Y-81674152D01*
X155539782Y-81694668D01*
X155452826Y-81728614D01*
X155330982Y-81802947D01*
X155211025Y-81910575D01*
X155217620Y-81878946D01*
X155224690Y-81813390D01*
X155217620Y-81763053D01*
X155197853Y-81720495D01*
X155168649Y-81691245D01*
X155131010Y-81673441D01*
X155084385Y-81667187D01*
X155009568Y-81680669D01*
X154946632Y-81720799D01*
X154899769Y-81784323D01*
X154866887Y-81881999D01*
X154642794Y-82959720D01*
X154634293Y-83033398D01*
X154079372Y-83033398D01*
X154151500Y-82981580D01*
X154259354Y-82870822D01*
X154349581Y-82738925D01*
X154418181Y-82592212D01*
X154464619Y-82430812D01*
X154485755Y-82265251D01*
X154478419Y-82121601D01*
X154457661Y-82030577D01*
X154425260Y-81950322D01*
X154381454Y-81879312D01*
X154326106Y-81817064D01*
X154259792Y-81764848D01*
X154181175Y-81722264D01*
X154096513Y-81692460D01*
X154000187Y-81673749D01*
X153890282Y-81667187D01*
X153729889Y-81680890D01*
X153579605Y-81721409D01*
X153440054Y-81787306D01*
X153316556Y-81875771D01*
X153210156Y-81985338D01*
X153120184Y-82117205D01*
X153051523Y-82264411D01*
X153004413Y-82428370D01*
X152985947Y-82572605D01*
X152983244Y-82593720D01*
X152556589Y-82593720D01*
X152897069Y-82008028D01*
X152946650Y-81910697D01*
X152979623Y-81836203D01*
X152983084Y-81793205D01*
X152975471Y-81753161D01*
X152957059Y-81717773D01*
X152927965Y-81690512D01*
X152891702Y-81673058D01*
X152851029Y-81667187D01*
X152795907Y-81672898D01*
X152755896Y-81688192D01*
X152721180Y-81715939D01*
X152678838Y-81768426D01*
X152581751Y-81931946D01*
X152117079Y-82776416D01*
X152001064Y-81868932D01*
X151984072Y-81778805D01*
X151960031Y-81719822D01*
X151935657Y-81691597D01*
X151899981Y-81673818D01*
X151848778Y-81667187D01*
X151802775Y-81673212D01*
X151754256Y-81692222D01*
X151709988Y-81721489D01*
X151673168Y-81759023D01*
X151645668Y-81802928D01*
X151630059Y-81849637D01*
X151627523Y-81901863D01*
X151641172Y-81996182D01*
X151849145Y-83152306D01*
X151799319Y-83234371D01*
X151704797Y-83372613D01*
X151664652Y-83413773D01*
X151627250Y-83438192D01*
X151584603Y-83451859D01*
X151526133Y-83456999D01*
X151468736Y-83448939D01*
X151411828Y-83440635D01*
X151341091Y-83450133D01*
X151289340Y-83476172D01*
X151251650Y-83518289D01*
X151229378Y-83576922D01*
X151226910Y-83637438D01*
X147680258Y-83637438D01*
X147680258Y-82994524D01*
X147902480Y-82994524D01*
X147909659Y-83056146D01*
X147929780Y-83099183D01*
X147964536Y-83130386D01*
X148020185Y-83151660D01*
X148105635Y-83160000D01*
X148704274Y-83160000D01*
X148855165Y-83155799D01*
X148979413Y-83144246D01*
X149095759Y-83122273D01*
X149197278Y-83090024D01*
X149296838Y-83039302D01*
X149386514Y-82972999D01*
X149467288Y-82889989D01*
X149534208Y-82795425D01*
X149583273Y-82694354D01*
X149609186Y-82606313D01*
X149911395Y-82606313D01*
X149919806Y-82755129D01*
X149954906Y-82879743D01*
X150014881Y-82985244D01*
X150080528Y-83056109D01*
X150161094Y-83112374D01*
X150259042Y-83154496D01*
X150377875Y-83181544D01*
X150521929Y-83191263D01*
X150672039Y-83180664D01*
X150803541Y-83150352D01*
X150924495Y-83102907D01*
X151022260Y-83047404D01*
X151106599Y-82981829D01*
X151167096Y-82917588D01*
X151211735Y-82849919D01*
X151230844Y-82798520D01*
X151232323Y-82744295D01*
X151213625Y-82707051D01*
X151178566Y-82683199D01*
X151126186Y-82674445D01*
X151076353Y-82681222D01*
X151038503Y-82700090D01*
X150905879Y-82804504D01*
X150797801Y-82876311D01*
X150739585Y-82905710D01*
X150683374Y-82925526D01*
X150625260Y-82937153D01*
X150561496Y-82941158D01*
X150470643Y-82928588D01*
X150395778Y-82892431D01*
X150337727Y-82833263D01*
X150298080Y-82747229D01*
X150283124Y-82647095D01*
X150294417Y-82526922D01*
X151004797Y-82526922D01*
X151140667Y-82515276D01*
X151237438Y-82484668D01*
X151287227Y-82448459D01*
X151326968Y-82389477D01*
X151355896Y-82300020D01*
X151368409Y-82198452D01*
X151363557Y-82098986D01*
X151341364Y-82000212D01*
X151301022Y-81908587D01*
X151241338Y-81829086D01*
X151160258Y-81760122D01*
X151066094Y-81710293D01*
X150951111Y-81678575D01*
X150810380Y-81667187D01*
X150648832Y-81680890D01*
X150498482Y-81721287D01*
X150359532Y-81787474D01*
X150237875Y-81876870D01*
X150133869Y-81987439D01*
X150046510Y-82119891D01*
X149979954Y-82266669D01*
X149968191Y-82308080D01*
X149934403Y-82427027D01*
X149911395Y-82606313D01*
X149609186Y-82606313D01*
X149615300Y-82585540D01*
X149628843Y-82464072D01*
X149617374Y-82363704D01*
X149584093Y-82279405D01*
X149528995Y-82207454D01*
X149448896Y-82145929D01*
X149337840Y-82094979D01*
X149458348Y-82031172D01*
X149553559Y-81956195D01*
X149627032Y-81869949D01*
X149680944Y-81771196D01*
X149715928Y-81657662D01*
X149726750Y-81570760D01*
X149722400Y-81490722D01*
X149703345Y-81414689D01*
X149670132Y-81346252D01*
X149624296Y-81286393D01*
X149568283Y-81238175D01*
X149491163Y-81196049D01*
X149396824Y-81169298D01*
X149291881Y-81156228D01*
X149156245Y-81151346D01*
X148521580Y-81151346D01*
X148437903Y-81158762D01*
X148373181Y-81179001D01*
X148323255Y-81210331D01*
X148283832Y-81254226D01*
X148250899Y-81316663D01*
X148225558Y-81402794D01*
X148107243Y-81972002D01*
X147925289Y-82847369D01*
X147912927Y-82906842D01*
X147902480Y-82994524D01*
X147680258Y-82994524D01*
X147680258Y-80890045D01*
X158265617Y-80890045D01*
X158265617Y-83968404D01*
G37*
D12*
G36*
X168758933Y-90580827D02*
G01*
X168828079Y-90593503D01*
X168886215Y-90616556D01*
X168935057Y-90650472D01*
X168974608Y-90694544D01*
X169003567Y-90747925D01*
X169020894Y-90807910D01*
X169026953Y-90877374D01*
X169020352Y-90953156D01*
X169001849Y-91015584D01*
X168972493Y-91067257D01*
X168932065Y-91110015D01*
X168883176Y-91142443D01*
X168821775Y-91167177D01*
X168745135Y-91183331D01*
X168649965Y-91189211D01*
X168466111Y-91189211D01*
X168466111Y-91470273D01*
X168462415Y-91510224D01*
X168452377Y-91540638D01*
X168436863Y-91563696D01*
X168415628Y-91581458D01*
X168391355Y-91592001D01*
X168363040Y-91595631D01*
X168333347Y-91591959D01*
X168308663Y-91581446D01*
X168287814Y-91564002D01*
X168272702Y-91541241D01*
X168262907Y-91511185D01*
X168259298Y-91471678D01*
X168259298Y-91032896D01*
X168466111Y-91032896D01*
X168600750Y-91032896D01*
X168669065Y-91028843D01*
X168719879Y-91018119D01*
X168762735Y-90998052D01*
X168792480Y-90969759D01*
X168810735Y-90932455D01*
X168817393Y-90881770D01*
X168812857Y-90839812D01*
X168799975Y-90804930D01*
X168778986Y-90775586D01*
X168756502Y-90759021D01*
X168722192Y-90745358D01*
X168671942Y-90735720D01*
X168600750Y-90731988D01*
X168466111Y-90731988D01*
X168466111Y-91032896D01*
X168259298Y-91032896D01*
X168259298Y-90701641D01*
X168263423Y-90657613D01*
X168274289Y-90626474D01*
X168290622Y-90604860D01*
X168313375Y-90589647D01*
X168345371Y-90579504D01*
X168389663Y-90575673D01*
X168649904Y-90575673D01*
X168758933Y-90580827D01*
G37*
G36*
X169901465Y-91419715D02*
G01*
X169741425Y-90827365D01*
X169579370Y-91419715D01*
X169548839Y-91517901D01*
X169533579Y-91545820D01*
X169509028Y-91571756D01*
X169477053Y-91589287D01*
X169433374Y-91595631D01*
X169397454Y-91591789D01*
X169370542Y-91581343D01*
X169348354Y-91564285D01*
X169330608Y-91541165D01*
X169317121Y-91513646D01*
X169305818Y-91479921D01*
X169288721Y-91414525D01*
X169122025Y-90740293D01*
X169110092Y-90684476D01*
X169106943Y-90650289D01*
X169113951Y-90613637D01*
X169134848Y-90583367D01*
X169165817Y-90563034D01*
X169203846Y-90556133D01*
X169239447Y-90560737D01*
X169263710Y-90572974D01*
X169279806Y-90592281D01*
X169296844Y-90632808D01*
X169313695Y-90696268D01*
X169443143Y-91272864D01*
X169587918Y-90733759D01*
X169617411Y-90637772D01*
X169634470Y-90607166D01*
X169660336Y-90580436D01*
X169694042Y-90562668D01*
X169741425Y-90556133D01*
X169775188Y-90559283D01*
X169801578Y-90567939D01*
X169822208Y-90581474D01*
X169847049Y-90608516D01*
X169862020Y-90636428D01*
X169891573Y-90733759D01*
X170037752Y-91272925D01*
X170167140Y-90696268D01*
X170185336Y-90624277D01*
X170197012Y-90599570D01*
X170215256Y-90577077D01*
X170240124Y-90561794D01*
X170276988Y-90556133D01*
X170314520Y-90562914D01*
X170345621Y-90583000D01*
X170366753Y-90613058D01*
X170373892Y-90650289D01*
X170370847Y-90682451D01*
X170358810Y-90740293D01*
X170192114Y-91414525D01*
X170163660Y-91514909D01*
X170148421Y-91544782D01*
X170124825Y-91571329D01*
X170093335Y-91589053D01*
X170047461Y-91595631D01*
X170003756Y-91589360D01*
X169971807Y-91572062D01*
X169947292Y-91546519D01*
X169932301Y-91519244D01*
X169901465Y-91419715D01*
G37*
G36*
X171077311Y-90581535D02*
G01*
X171124364Y-90590550D01*
X171165239Y-90605226D01*
X171209884Y-90629326D01*
X171249136Y-90662074D01*
X171281221Y-90702017D01*
X171304579Y-90748047D01*
X171318773Y-90798205D01*
X171323569Y-90851789D01*
X171319209Y-90907458D01*
X171306837Y-90955030D01*
X171287067Y-90995914D01*
X171259883Y-91031186D01*
X171213561Y-91069632D01*
X171152228Y-91101239D01*
X171072426Y-91125219D01*
X171120100Y-91157486D01*
X171171345Y-91207773D01*
X171218051Y-91265791D01*
X171259333Y-91327269D01*
X171294912Y-91389724D01*
X171319661Y-91441758D01*
X171337214Y-91489560D01*
X171341277Y-91512405D01*
X171338167Y-91532248D01*
X171328332Y-91552705D01*
X171313164Y-91570449D01*
X171293100Y-91584152D01*
X171269575Y-91592651D01*
X171241625Y-91595631D01*
X171208955Y-91591356D01*
X171183251Y-91579328D01*
X171161418Y-91560962D01*
X171142768Y-91538173D01*
X171097217Y-91465511D01*
X171015884Y-91330200D01*
X170972071Y-91261181D01*
X170937971Y-91217238D01*
X170902103Y-91183606D01*
X170868606Y-91164359D01*
X170830882Y-91154020D01*
X170779884Y-91150132D01*
X170710764Y-91150132D01*
X170710764Y-91470029D01*
X170707051Y-91512007D01*
X170697156Y-91542747D01*
X170682187Y-91564979D01*
X170661464Y-91581876D01*
X170637029Y-91592071D01*
X170607754Y-91595631D01*
X170576250Y-91591822D01*
X170551212Y-91581126D01*
X170531123Y-91563696D01*
X170516818Y-91540814D01*
X170507471Y-91510425D01*
X170504012Y-91470334D01*
X170504012Y-91001632D01*
X170710764Y-91001632D01*
X170890526Y-91001632D01*
X170960400Y-90998217D01*
X171012831Y-90989176D01*
X171057631Y-90971708D01*
X171088119Y-90947044D01*
X171101994Y-90925802D01*
X171110816Y-90898997D01*
X171114009Y-90865101D01*
X171108676Y-90826356D01*
X171093126Y-90793232D01*
X171068504Y-90766288D01*
X171035301Y-90746826D01*
X170991513Y-90736708D01*
X170895961Y-90731988D01*
X170710764Y-90731988D01*
X170710764Y-91001632D01*
X170504012Y-91001632D01*
X170504012Y-90701641D01*
X170507932Y-90658485D01*
X170518308Y-90627495D01*
X170533932Y-90605593D01*
X170555911Y-90589971D01*
X170587001Y-90579594D01*
X170630286Y-90575673D01*
X170960197Y-90575673D01*
X171077311Y-90581535D01*
G37*
D11*
G36*
X160272452Y-82522526D02*
G01*
X160241750Y-82618582D01*
X160182937Y-82730376D01*
X160102980Y-82838094D01*
X159991817Y-82949584D01*
X159860481Y-83045793D01*
X159701901Y-83124218D01*
X159587997Y-83160889D01*
X159464056Y-83183483D01*
X159328576Y-83191263D01*
X159177608Y-83183319D01*
X159051605Y-83161221D01*
X158936343Y-83122227D01*
X158839235Y-83067798D01*
X158755458Y-82995136D01*
X158682431Y-82900247D01*
X158631550Y-82800833D01*
X158593527Y-82687878D01*
X158570831Y-82567922D01*
X158563119Y-82437407D01*
X158570724Y-82302653D01*
X158594382Y-82154696D01*
X158635430Y-81995637D01*
X158688702Y-81851233D01*
X158753750Y-81720066D01*
X158832682Y-81596947D01*
X158921302Y-81487791D01*
X159019853Y-81391559D01*
X159128803Y-81307261D01*
X159243585Y-81238213D01*
X159364846Y-81183709D01*
X159491628Y-81143848D01*
X159619195Y-81120157D01*
X159748429Y-81112267D01*
X159905327Y-81123952D01*
X160039257Y-81157042D01*
X160154117Y-81209720D01*
X160257517Y-81282491D01*
X160335049Y-81362727D01*
X160390300Y-81451032D01*
X160426996Y-81548624D01*
X160440494Y-81638469D01*
X160433286Y-81723119D01*
X160407684Y-81788905D01*
X160358304Y-81848171D01*
X160294573Y-81889255D01*
X160228489Y-81902271D01*
X160158875Y-81891553D01*
X160119312Y-81864291D01*
X160091406Y-81818461D01*
X160059839Y-81735087D01*
X160022195Y-81640190D01*
X159977104Y-81567763D01*
X159925139Y-81513803D01*
X159862243Y-81474535D01*
X159783460Y-81449555D01*
X159684560Y-81440530D01*
X159567423Y-81452238D01*
X159458660Y-81486905D01*
X159356000Y-81545299D01*
X159257868Y-81630062D01*
X159177191Y-81728702D01*
X159107096Y-81849042D01*
X159048145Y-81994481D01*
X159001657Y-82169106D01*
X158977189Y-82326156D01*
X158972839Y-82453733D01*
X158984682Y-82556964D01*
X159015020Y-82654850D01*
X159059214Y-82730157D01*
X159116817Y-82787163D01*
X159187495Y-82828182D01*
X159272017Y-82853875D01*
X159373761Y-82863000D01*
X159484543Y-82853157D01*
X159585683Y-82824327D01*
X159679187Y-82776538D01*
X159762665Y-82711987D01*
X159839244Y-82628236D01*
X159909141Y-82522526D01*
X159954545Y-82447776D01*
X160000000Y-82391856D01*
X160055900Y-82354381D01*
X160133112Y-82341053D01*
X160198596Y-82354398D01*
X160247051Y-82393199D01*
X160273810Y-82450162D01*
X160272452Y-82522526D01*
G37*
G36*
X161259804Y-82851765D02*
G01*
X161214619Y-81577306D01*
X160931297Y-82958988D01*
X160909455Y-83033563D01*
X160880172Y-83090434D01*
X160844225Y-83133011D01*
X160775794Y-83176753D01*
X160696824Y-83191263D01*
X160644979Y-83184334D01*
X160605182Y-83164995D01*
X160574459Y-83133255D01*
X160556089Y-83092468D01*
X160549633Y-83035895D01*
X160558949Y-82957522D01*
X160887578Y-81376538D01*
X160913865Y-81292461D01*
X160949192Y-81235017D01*
X160992602Y-81197752D01*
X161076509Y-81163659D01*
X161184699Y-81151346D01*
X161307676Y-81151346D01*
X161411148Y-81157715D01*
X161466556Y-81172351D01*
X161504917Y-81201172D01*
X161527006Y-81247456D01*
X161546057Y-81421845D01*
X161602599Y-82499445D01*
X162107937Y-81420380D01*
X162199162Y-81246601D01*
X162240217Y-81200694D01*
X162290020Y-81172107D01*
X162352436Y-81157446D01*
X162456960Y-81151346D01*
X162579815Y-81151346D01*
X162655305Y-81157417D01*
X162711784Y-81173681D01*
X162753593Y-81198241D01*
X162781123Y-81234097D01*
X162793353Y-81290547D01*
X162784734Y-81378248D01*
X162456106Y-82959232D01*
X162434258Y-83033804D01*
X162404974Y-83090630D01*
X162369033Y-83133133D01*
X162300339Y-83176730D01*
X162220289Y-83191263D01*
X162169422Y-83184292D01*
X162130068Y-83164732D01*
X162099389Y-83132400D01*
X162081066Y-83091190D01*
X162074629Y-83034713D01*
X162083757Y-82957278D01*
X162374651Y-81577306D01*
X161799092Y-82853230D01*
X161710921Y-83036046D01*
X161672437Y-83090753D01*
X161616277Y-83142903D01*
X161547372Y-83178665D01*
X161459961Y-83191263D01*
X161394126Y-83182826D01*
X161346388Y-83159877D01*
X161309846Y-83123936D01*
X161286427Y-83079766D01*
X161266032Y-82972909D01*
X161259804Y-82851765D01*
G37*
G36*
X163900675Y-81673749D02*
G01*
X163997002Y-81692460D01*
X164081664Y-81722264D01*
X164160281Y-81764848D01*
X164226594Y-81817064D01*
X164281943Y-81879312D01*
X164325748Y-81950322D01*
X164358149Y-82030577D01*
X164378907Y-82121601D01*
X164386244Y-82265251D01*
X164365108Y-82430812D01*
X164318670Y-82592212D01*
X164250069Y-82738925D01*
X164159842Y-82870822D01*
X164051988Y-82981580D01*
X163927301Y-83071157D01*
X163788695Y-83137163D01*
X163639167Y-83177481D01*
X163475575Y-83191263D01*
X163365484Y-83184669D01*
X163270041Y-83165959D01*
X163187124Y-83136308D01*
X163110324Y-83093860D01*
X163044675Y-83041474D01*
X162989043Y-82978649D01*
X162944797Y-82907239D01*
X162912135Y-82827038D01*
X162891224Y-82736605D01*
X162883733Y-82593720D01*
X162886436Y-82572605D01*
X163260772Y-82572605D01*
X163268579Y-82685924D01*
X163288385Y-82755409D01*
X163317831Y-82809976D01*
X163356507Y-82852376D01*
X163404617Y-82883591D01*
X163462392Y-82903008D01*
X163532362Y-82909895D01*
X163636376Y-82895959D01*
X163731341Y-82854364D01*
X163820324Y-82782400D01*
X163891835Y-82690778D01*
X163949265Y-82574692D01*
X163991416Y-82429103D01*
X164010241Y-82276845D01*
X164000307Y-82161850D01*
X163967969Y-82074829D01*
X163927063Y-82019874D01*
X163875966Y-81981181D01*
X163812730Y-81957142D01*
X163733862Y-81948555D01*
X163631607Y-81962606D01*
X163535415Y-82005097D01*
X163451156Y-82073249D01*
X163376168Y-82172281D01*
X163319329Y-82289720D01*
X163278593Y-82430812D01*
X163260772Y-82572605D01*
X162886436Y-82572605D01*
X162904902Y-82428370D01*
X162952012Y-82264411D01*
X163020673Y-82117205D01*
X163110645Y-81985338D01*
X163217044Y-81875771D01*
X163340542Y-81787306D01*
X163480094Y-81721409D01*
X163630378Y-81680890D01*
X163790771Y-81667187D01*
X163900675Y-81673749D01*
G37*
G36*
X164833932Y-83234371D02*
G01*
X164883757Y-83152306D01*
X164675785Y-81996182D01*
X164662136Y-81901863D01*
X164664672Y-81849637D01*
X164680280Y-81802928D01*
X164707780Y-81759023D01*
X164744601Y-81721489D01*
X164788869Y-81692222D01*
X164837388Y-81673212D01*
X164883391Y-81667187D01*
X164934594Y-81673818D01*
X164970269Y-81691597D01*
X164994644Y-81719822D01*
X165018684Y-81778805D01*
X165035676Y-81868932D01*
X165151692Y-82776416D01*
X165616364Y-81931946D01*
X165713450Y-81768426D01*
X165755793Y-81715939D01*
X165790509Y-81688192D01*
X165830520Y-81672898D01*
X165885642Y-81667187D01*
X165926314Y-81673058D01*
X165962578Y-81690512D01*
X165991671Y-81717773D01*
X166010083Y-81753161D01*
X166017696Y-81793205D01*
X166014235Y-81836203D01*
X165981263Y-81910697D01*
X165931681Y-82008028D01*
X165191015Y-83282121D01*
X165093623Y-83439947D01*
X165015160Y-83546636D01*
X164928478Y-83632042D01*
X164827826Y-83694525D01*
X164753796Y-83721983D01*
X164663671Y-83739766D01*
X164554274Y-83746182D01*
X164404490Y-83735445D01*
X164318457Y-83709912D01*
X164279726Y-83679697D01*
X164261523Y-83637438D01*
X164263991Y-83576922D01*
X164286262Y-83518289D01*
X164323953Y-83476172D01*
X164375704Y-83450133D01*
X164446441Y-83440635D01*
X164503349Y-83448939D01*
X164560746Y-83456999D01*
X164619215Y-83451859D01*
X164661863Y-83438192D01*
X164699265Y-83413773D01*
X164739410Y-83372613D01*
X164833932Y-83234371D01*
G37*
G36*
X148376221Y-96730044D02*
G01*
X148376221Y-95546596D01*
X148381692Y-95485764D01*
X148396434Y-95440179D01*
X148418994Y-95406278D01*
X148450195Y-95380225D01*
X148486594Y-95364619D01*
X148529819Y-95359200D01*
X148574380Y-95364608D01*
X148611542Y-95380088D01*
X148643025Y-95405729D01*
X148665885Y-95439367D01*
X148680862Y-95485067D01*
X148686440Y-95546596D01*
X148686440Y-96730044D01*
X148680875Y-96791576D01*
X148665907Y-96837487D01*
X148643025Y-96871461D01*
X148611508Y-96897374D01*
X148574346Y-96912995D01*
X148529819Y-96918447D01*
X148487338Y-96913027D01*
X148451088Y-96897318D01*
X148419543Y-96870911D01*
X148396649Y-96836629D01*
X148381739Y-96790832D01*
X148376221Y-96730044D01*
G37*
G36*
X149422465Y-95543848D02*
G01*
X150002145Y-96425046D01*
X150002145Y-95537162D01*
X150007072Y-95479160D01*
X150020287Y-95435880D01*
X150040339Y-95403897D01*
X150068447Y-95379266D01*
X150102209Y-95364410D01*
X150143379Y-95359200D01*
X150185985Y-95364439D01*
X150220561Y-95379288D01*
X150248983Y-95403714D01*
X150269354Y-95435622D01*
X150282743Y-95478701D01*
X150287726Y-95536338D01*
X150287726Y-96717771D01*
X150279586Y-96796623D01*
X150258234Y-96851031D01*
X150225938Y-96887687D01*
X150181560Y-96910227D01*
X150120847Y-96918447D01*
X150080577Y-96915326D01*
X150045926Y-96906448D01*
X150014103Y-96891263D01*
X149983644Y-96868621D01*
X149929972Y-96808171D01*
X149880604Y-96737738D01*
X149315304Y-95870279D01*
X149315304Y-96741218D01*
X149310123Y-96797982D01*
X149296083Y-96841017D01*
X149274454Y-96873476D01*
X149244792Y-96898420D01*
X149210455Y-96913298D01*
X149169949Y-96918447D01*
X149128049Y-96913172D01*
X149093387Y-96898083D01*
X149064253Y-96873018D01*
X149043244Y-96840392D01*
X149029613Y-96797486D01*
X149024594Y-96741310D01*
X149024594Y-95582408D01*
X149029290Y-95512314D01*
X149041172Y-95465538D01*
X149067252Y-95423201D01*
X149106843Y-95388876D01*
X149154712Y-95366567D01*
X149205853Y-95359200D01*
X149245565Y-95362823D01*
X149277202Y-95372848D01*
X149305161Y-95388810D01*
X149329226Y-95409392D01*
X149374655Y-95468560D01*
X149422465Y-95543848D01*
G37*
D12*
G36*
X160195260Y-95315646D02*
G01*
X160300522Y-95334183D01*
X160395132Y-95363932D01*
X160480434Y-95404455D01*
X160559688Y-95457244D01*
X160628049Y-95519498D01*
X160686393Y-95591784D01*
X160735149Y-95675107D01*
X160782033Y-95794936D01*
X160811346Y-95931197D01*
X160821611Y-96086809D01*
X160816077Y-96202468D01*
X160800066Y-96307939D01*
X160774258Y-96404355D01*
X160736985Y-96496475D01*
X160689703Y-96578810D01*
X160632292Y-96652383D01*
X160564817Y-96716496D01*
X160487636Y-96769908D01*
X160399651Y-96812943D01*
X160306194Y-96843066D01*
X160201518Y-96861885D01*
X160083936Y-96868447D01*
X159967175Y-96861754D01*
X159862112Y-96842458D01*
X159767214Y-96811386D01*
X159677856Y-96767382D01*
X159600387Y-96713746D01*
X159533565Y-96650277D01*
X159476909Y-96577318D01*
X159429735Y-96494374D01*
X159392057Y-96400233D01*
X159365819Y-96301842D01*
X159349741Y-96196943D01*
X159344247Y-96084702D01*
X159658587Y-96084702D01*
X159666968Y-96208937D01*
X159690736Y-96315969D01*
X159730537Y-96412453D01*
X159781319Y-96487153D01*
X159844795Y-96546945D01*
X159915592Y-96588636D01*
X159994140Y-96613662D01*
X160081921Y-96622250D01*
X160157616Y-96615711D01*
X160228240Y-96596405D01*
X160294962Y-96564181D01*
X160353905Y-96519714D01*
X160405389Y-96460606D01*
X160449659Y-96384480D01*
X160480470Y-96301420D01*
X160500213Y-96202482D01*
X160507270Y-96084702D01*
X160500912Y-95975811D01*
X160482879Y-95881398D01*
X160454330Y-95799396D01*
X160412890Y-95723878D01*
X160362632Y-95663800D01*
X160303205Y-95617130D01*
X160235417Y-95583176D01*
X160160812Y-95562508D01*
X160077800Y-95555397D01*
X159989904Y-95564096D01*
X159910463Y-95589561D01*
X159839200Y-95631393D01*
X159778297Y-95689029D01*
X159729928Y-95761120D01*
X159690736Y-95856091D01*
X159666982Y-95961561D01*
X159658587Y-96084702D01*
X159344247Y-96084702D01*
X159350023Y-95969822D01*
X159366823Y-95863985D01*
X159394072Y-95766148D01*
X159433092Y-95672695D01*
X159481305Y-95590801D01*
X159538695Y-95519219D01*
X159605948Y-95456940D01*
X159682448Y-95405045D01*
X159769229Y-95363239D01*
X159861274Y-95333857D01*
X159963623Y-95315560D01*
X160077800Y-95309200D01*
X160195260Y-95315646D01*
G37*
G36*
X161077791Y-96218975D02*
G01*
X161077791Y-95496596D01*
X161083212Y-95435724D01*
X161097805Y-95390141D01*
X161120106Y-95356278D01*
X161150995Y-95330297D01*
X161187511Y-95314659D01*
X161231389Y-95309200D01*
X161277285Y-95314739D01*
X161314735Y-95330455D01*
X161345695Y-95356278D01*
X161367995Y-95390199D01*
X161382589Y-95435843D01*
X161388010Y-95496779D01*
X161388010Y-96236377D01*
X161395658Y-96356521D01*
X161415945Y-96446029D01*
X161439668Y-96498318D01*
X161472408Y-96541249D01*
X161514772Y-96576088D01*
X161564320Y-96600286D01*
X161629363Y-96616311D01*
X161713982Y-96622250D01*
X161802931Y-96615232D01*
X161871532Y-96596183D01*
X161924106Y-96567081D01*
X161963843Y-96528369D01*
X162001795Y-96461530D01*
X162027306Y-96368895D01*
X162036933Y-96242513D01*
X162036933Y-95496779D01*
X162042325Y-95435102D01*
X162056768Y-95389375D01*
X162078698Y-95355820D01*
X162109298Y-95330182D01*
X162145962Y-95314652D01*
X162190531Y-95309200D01*
X162235091Y-95314608D01*
X162272253Y-95330088D01*
X162303737Y-95355729D01*
X162326593Y-95389369D01*
X162341572Y-95435096D01*
X162347151Y-95496687D01*
X162347151Y-96219524D01*
X162337678Y-96388722D01*
X162312622Y-96514814D01*
X162283074Y-96590024D01*
X162239993Y-96659125D01*
X162182288Y-96723000D01*
X162124426Y-96768920D01*
X162060764Y-96805709D01*
X161990587Y-96833642D01*
X161876277Y-96859190D01*
X161735506Y-96868447D01*
X161619832Y-96863846D01*
X161520789Y-96850941D01*
X161436278Y-96830894D01*
X161355660Y-96800241D01*
X161287937Y-96761342D01*
X161231389Y-96714391D01*
X161184050Y-96658195D01*
X161145178Y-96591436D01*
X161114885Y-96512524D01*
X161087766Y-96383068D01*
X161077791Y-96218975D01*
G37*
G36*
X163648661Y-95596430D02*
G01*
X163319574Y-95596430D01*
X163319574Y-96680777D01*
X163314042Y-96742797D01*
X163299229Y-96788646D01*
X163276709Y-96822193D01*
X163245571Y-96847759D01*
X163209199Y-96863110D01*
X163165976Y-96868447D01*
X163122103Y-96863042D01*
X163085222Y-96847504D01*
X163053685Y-96821644D01*
X163030849Y-96787796D01*
X163015914Y-96742064D01*
X163010362Y-96680777D01*
X163010362Y-95596430D01*
X162681367Y-95596430D01*
X162629768Y-95591880D01*
X162591534Y-95579690D01*
X162563490Y-95561168D01*
X162534608Y-95520785D01*
X162524655Y-95468019D01*
X162535076Y-95413528D01*
X162565047Y-95373223D01*
X162611631Y-95348016D01*
X162681367Y-95338510D01*
X163648661Y-95338510D01*
X163700845Y-95343128D01*
X163739526Y-95355504D01*
X163767912Y-95374322D01*
X163797234Y-95415140D01*
X163807296Y-95468019D01*
X163797122Y-95520700D01*
X163767454Y-95561168D01*
X163720909Y-95586670D01*
X163648661Y-95596430D01*
G37*
D11*
G36*
X132143442Y-96265887D02*
G01*
X132242861Y-96284784D01*
X132328446Y-96314572D01*
X132402185Y-96354547D01*
X132468562Y-96407177D01*
X132522357Y-96469125D01*
X132564535Y-96541361D01*
X132595259Y-96625473D01*
X132616052Y-96743272D01*
X132616759Y-96879343D01*
X132594251Y-97037450D01*
X132565118Y-97152065D01*
X132527635Y-97257584D01*
X132482052Y-97354813D01*
X132426753Y-97446513D01*
X132363416Y-97528870D01*
X132291817Y-97602567D01*
X132212066Y-97666986D01*
X132125410Y-97720323D01*
X132031149Y-97762943D01*
X131932232Y-97793379D01*
X131825862Y-97812049D01*
X131710947Y-97818447D01*
X131596681Y-97811571D01*
X131498038Y-97792098D01*
X131412726Y-97761294D01*
X131334094Y-97717046D01*
X131269516Y-97663389D01*
X131217363Y-97599911D01*
X131177457Y-97527721D01*
X131148449Y-97444914D01*
X131130901Y-97349684D01*
X131125700Y-97252398D01*
X131130922Y-97160561D01*
X131439459Y-97160561D01*
X131440478Y-97266519D01*
X131459515Y-97363660D01*
X131493326Y-97437428D01*
X131542816Y-97497024D01*
X131603327Y-97538728D01*
X131674121Y-97563518D01*
X131758849Y-97572250D01*
X131833095Y-97565912D01*
X131906360Y-97546765D01*
X131979583Y-97514090D01*
X132046371Y-97469704D01*
X132109252Y-97410404D01*
X132168536Y-97334113D01*
X132216475Y-97249918D01*
X132256320Y-97150647D01*
X132287329Y-97034061D01*
X132303884Y-96923602D01*
X132305651Y-96829434D01*
X132294840Y-96748938D01*
X132269689Y-96672835D01*
X132233089Y-96613145D01*
X132185114Y-96566946D01*
X132126971Y-96533509D01*
X132058694Y-96512725D01*
X131977843Y-96505397D01*
X131890837Y-96513951D01*
X131806934Y-96539652D01*
X131728780Y-96581278D01*
X131656725Y-96639212D01*
X131594086Y-96711653D01*
X131536099Y-96806457D01*
X131490685Y-96912842D01*
X131457148Y-97035343D01*
X131439459Y-97160561D01*
X131130922Y-97160561D01*
X131131663Y-97147537D01*
X131149768Y-97034061D01*
X131178994Y-96920238D01*
X131217360Y-96814353D01*
X131264715Y-96715690D01*
X131321986Y-96622690D01*
X131386122Y-96540768D01*
X131457240Y-96469036D01*
X131536388Y-96406456D01*
X131622050Y-96354640D01*
X131714885Y-96313239D01*
X131812211Y-96283560D01*
X131916202Y-96265405D01*
X132027852Y-96259200D01*
X132143442Y-96265887D01*
G37*
G36*
X133866359Y-96528845D02*
G01*
X133282466Y-96528845D01*
X133204431Y-96904002D01*
X133690871Y-96904002D01*
X133753179Y-96913183D01*
X133788415Y-96936333D01*
X133806327Y-96972583D01*
X133805177Y-97022429D01*
X133786453Y-97070441D01*
X133752878Y-97107059D01*
X133706766Y-97130056D01*
X133643335Y-97138475D01*
X133155704Y-97138475D01*
X133053397Y-97630777D01*
X133035361Y-97692023D01*
X133011235Y-97738162D01*
X132981681Y-97772193D01*
X132945030Y-97798157D01*
X132906037Y-97813341D01*
X132863620Y-97818447D01*
X132820935Y-97812807D01*
X132788234Y-97797091D01*
X132763053Y-97771369D01*
X132747940Y-97738262D01*
X132742534Y-97692668D01*
X132749864Y-97629861D01*
X132989558Y-96476821D01*
X133007585Y-96414863D01*
X133031232Y-96368927D01*
X133063750Y-96332494D01*
X133104505Y-96307744D01*
X133152494Y-96293649D01*
X133213498Y-96288510D01*
X133915086Y-96288510D01*
X133962293Y-96292970D01*
X133994705Y-96304578D01*
X134016386Y-96321849D01*
X134034940Y-96358925D01*
X134033971Y-96408769D01*
X134014863Y-96457930D01*
X133980573Y-96495963D01*
X133933226Y-96519967D01*
X133866359Y-96528845D01*
G37*
G36*
X135133980Y-96528845D02*
G01*
X134550087Y-96528845D01*
X134472051Y-96904002D01*
X134958491Y-96904002D01*
X135020800Y-96913183D01*
X135056036Y-96936333D01*
X135073947Y-96972583D01*
X135072797Y-97022429D01*
X135054074Y-97070441D01*
X135020498Y-97107059D01*
X134974387Y-97130056D01*
X134910956Y-97138475D01*
X134423325Y-97138475D01*
X134321017Y-97630777D01*
X134302982Y-97692023D01*
X134278855Y-97738162D01*
X134249302Y-97772193D01*
X134212651Y-97798157D01*
X134173657Y-97813341D01*
X134131241Y-97818447D01*
X134088556Y-97812807D01*
X134055854Y-97797091D01*
X134030674Y-97771369D01*
X134015560Y-97738262D01*
X134010155Y-97692668D01*
X134017485Y-97629861D01*
X134257178Y-96476821D01*
X134275206Y-96414863D01*
X134298852Y-96368927D01*
X134331370Y-96332494D01*
X134372125Y-96307744D01*
X134420114Y-96293649D01*
X134481119Y-96288510D01*
X135182706Y-96288510D01*
X135229913Y-96292970D01*
X135262326Y-96304578D01*
X135284006Y-96321849D01*
X135302560Y-96358925D01*
X135301591Y-96408769D01*
X135282483Y-96457930D01*
X135248194Y-96495963D01*
X135200847Y-96519967D01*
X135133980Y-96528845D01*
G37*
D13*
%TO.C,G\u002A\u002A\u002A*%
G36*
X169735975Y-87763536D02*
G01*
X169732598Y-87777182D01*
X169727104Y-87798616D01*
X169719743Y-87826907D01*
X169710763Y-87861124D01*
X169700414Y-87900333D01*
X169688946Y-87943604D01*
X169676606Y-87990004D01*
X169663645Y-88038601D01*
X169650311Y-88088464D01*
X169636854Y-88138660D01*
X169623522Y-88188258D01*
X169610565Y-88236326D01*
X169598231Y-88281932D01*
X169586771Y-88324144D01*
X169576433Y-88362029D01*
X169567465Y-88394657D01*
X169560118Y-88421095D01*
X169555934Y-88435906D01*
X169548437Y-88462156D01*
X169318987Y-88462156D01*
X169089537Y-88462156D01*
X169103941Y-88408406D01*
X169109209Y-88388789D01*
X169116558Y-88361481D01*
X169125459Y-88328445D01*
X169135383Y-88291646D01*
X169145801Y-88253045D01*
X169154819Y-88219656D01*
X169191293Y-88084656D01*
X169463139Y-87920633D01*
X169510568Y-87892065D01*
X169555430Y-87865138D01*
X169597000Y-87840283D01*
X169634550Y-87817928D01*
X169667356Y-87798502D01*
X169694692Y-87782436D01*
X169715833Y-87770159D01*
X169730051Y-87762099D01*
X169736623Y-87758687D01*
X169736987Y-87758611D01*
X169735975Y-87763536D01*
G37*
G36*
X168994322Y-86057915D02*
G01*
X169078026Y-86058102D01*
X169170972Y-86058389D01*
X169198441Y-86058485D01*
X169286186Y-86058809D01*
X169364511Y-86059132D01*
X169434003Y-86059463D01*
X169495251Y-86059813D01*
X169548843Y-86060191D01*
X169595366Y-86060608D01*
X169635409Y-86061073D01*
X169669558Y-86061597D01*
X169698403Y-86062189D01*
X169722530Y-86062860D01*
X169742528Y-86063619D01*
X169758984Y-86064477D01*
X169772487Y-86065443D01*
X169783624Y-86066528D01*
X169792983Y-86067741D01*
X169798913Y-86068693D01*
X169865071Y-86082928D01*
X169922356Y-86101255D01*
X169971133Y-86123922D01*
X170011768Y-86151180D01*
X170044628Y-86183275D01*
X170070077Y-86220458D01*
X170088481Y-86262977D01*
X170089594Y-86266407D01*
X170096081Y-86295765D01*
X170099599Y-86331654D01*
X170100112Y-86371045D01*
X170097586Y-86410911D01*
X170091986Y-86448222D01*
X170091689Y-86449657D01*
X170089355Y-86459400D01*
X170084562Y-86478178D01*
X170077476Y-86505374D01*
X170068260Y-86540371D01*
X170057079Y-86582554D01*
X170044099Y-86631306D01*
X170029484Y-86686011D01*
X170013397Y-86746052D01*
X169996006Y-86810815D01*
X169977473Y-86879681D01*
X169957963Y-86952036D01*
X169937642Y-87027263D01*
X169916673Y-87104745D01*
X169913597Y-87116099D01*
X169892749Y-87193063D01*
X169872637Y-87267345D01*
X169853414Y-87338377D01*
X169835235Y-87405588D01*
X169818252Y-87468408D01*
X169802620Y-87526268D01*
X169788492Y-87578598D01*
X169776023Y-87624827D01*
X169765367Y-87664386D01*
X169756676Y-87696705D01*
X169750106Y-87721214D01*
X169745810Y-87737344D01*
X169743941Y-87744523D01*
X169743871Y-87744849D01*
X169743256Y-87745973D01*
X169740937Y-87745815D01*
X169736202Y-87743970D01*
X169728336Y-87740030D01*
X169716629Y-87733588D01*
X169700367Y-87724236D01*
X169678837Y-87711568D01*
X169651328Y-87695176D01*
X169617126Y-87674653D01*
X169575518Y-87649592D01*
X169546215Y-87631913D01*
X169506565Y-87607900D01*
X169469536Y-87585313D01*
X169436014Y-87564707D01*
X169406889Y-87546633D01*
X169383049Y-87531645D01*
X169365380Y-87520298D01*
X169354772Y-87513143D01*
X169352007Y-87510904D01*
X169352649Y-87505138D01*
X169355827Y-87490223D01*
X169361414Y-87466653D01*
X169369282Y-87434919D01*
X169379305Y-87395513D01*
X169391356Y-87348926D01*
X169405307Y-87295650D01*
X169421032Y-87236178D01*
X169438404Y-87171001D01*
X169457295Y-87100610D01*
X169473613Y-87040147D01*
X169492652Y-86969555D01*
X169510607Y-86902550D01*
X169527325Y-86839733D01*
X169542648Y-86781706D01*
X169556420Y-86729074D01*
X169568487Y-86682437D01*
X169578692Y-86642399D01*
X169586879Y-86609563D01*
X169592892Y-86584530D01*
X169596576Y-86567904D01*
X169597774Y-86560286D01*
X169597766Y-86560147D01*
X169595372Y-86550186D01*
X169588941Y-86542517D01*
X169576102Y-86534641D01*
X169571235Y-86532157D01*
X169546215Y-86519657D01*
X169058331Y-86518118D01*
X168961079Y-86517874D01*
X168873215Y-86517782D01*
X168794811Y-86517844D01*
X168725941Y-86518058D01*
X168666677Y-86518424D01*
X168617093Y-86518942D01*
X168577262Y-86519610D01*
X168547256Y-86520429D01*
X168527148Y-86521397D01*
X168521020Y-86521916D01*
X168481757Y-86527985D01*
X168451565Y-86536693D01*
X168430679Y-86547957D01*
X168421320Y-86557939D01*
X168418295Y-86565459D01*
X168413086Y-86581427D01*
X168406051Y-86604619D01*
X168397548Y-86633812D01*
X168387936Y-86667781D01*
X168377573Y-86705303D01*
X168370118Y-86732828D01*
X168326274Y-86895999D01*
X168135614Y-86781067D01*
X168095904Y-86757096D01*
X168058793Y-86734628D01*
X168025169Y-86714207D01*
X167995921Y-86696375D01*
X167971937Y-86681674D01*
X167954106Y-86670648D01*
X167943317Y-86663839D01*
X167940401Y-86661846D01*
X167940139Y-86655705D01*
X167942539Y-86641539D01*
X167947178Y-86620833D01*
X167953637Y-86595077D01*
X167961494Y-86565758D01*
X167970328Y-86534363D01*
X167979719Y-86502381D01*
X167989246Y-86471299D01*
X167998487Y-86442605D01*
X168007022Y-86417787D01*
X168014430Y-86398333D01*
X168015992Y-86394632D01*
X168049158Y-86329961D01*
X168089652Y-86272077D01*
X168137402Y-86221033D01*
X168192336Y-86176884D01*
X168254382Y-86139682D01*
X168323470Y-86109481D01*
X168399527Y-86086335D01*
X168440575Y-86077342D01*
X168457517Y-86074228D01*
X168474716Y-86071439D01*
X168492773Y-86068960D01*
X168512285Y-86066775D01*
X168533852Y-86064869D01*
X168558074Y-86063229D01*
X168585548Y-86061838D01*
X168616874Y-86060682D01*
X168652651Y-86059746D01*
X168693478Y-86059015D01*
X168739953Y-86058474D01*
X168792676Y-86058109D01*
X168852246Y-86057904D01*
X168919262Y-86057844D01*
X168994322Y-86057915D01*
G37*
G36*
X167271129Y-86261930D02*
G01*
X167284256Y-86269796D01*
X167304254Y-86281806D01*
X167330327Y-86297481D01*
X167361678Y-86316341D01*
X167397509Y-86337904D01*
X167437025Y-86361693D01*
X167479428Y-86387225D01*
X167523922Y-86414023D01*
X167569710Y-86441604D01*
X167615995Y-86469490D01*
X167661980Y-86497200D01*
X167706870Y-86524254D01*
X167749867Y-86550173D01*
X167790174Y-86574475D01*
X167826994Y-86596682D01*
X167859532Y-86616313D01*
X167886990Y-86632889D01*
X167908571Y-86645928D01*
X167923479Y-86654951D01*
X167930916Y-86659479D01*
X167931619Y-86659921D01*
X167930505Y-86664816D01*
X167926898Y-86678886D01*
X167920926Y-86701659D01*
X167912717Y-86732658D01*
X167902398Y-86771409D01*
X167890096Y-86817437D01*
X167875940Y-86870267D01*
X167860057Y-86929425D01*
X167842574Y-86994436D01*
X167823618Y-87064824D01*
X167803319Y-87140116D01*
X167781802Y-87219836D01*
X167759197Y-87303509D01*
X167735629Y-87390661D01*
X167711228Y-87480817D01*
X167690179Y-87558522D01*
X167665153Y-87650908D01*
X167640837Y-87740730D01*
X167617361Y-87827510D01*
X167594853Y-87910772D01*
X167573441Y-87990036D01*
X167553255Y-88064825D01*
X167534423Y-88134661D01*
X167517074Y-88199066D01*
X167501336Y-88257563D01*
X167487338Y-88309672D01*
X167475209Y-88354917D01*
X167465078Y-88392819D01*
X167457072Y-88422901D01*
X167451322Y-88444684D01*
X167447955Y-88457691D01*
X167447062Y-88461480D01*
X167449762Y-88462916D01*
X167458253Y-88464081D01*
X167473119Y-88464986D01*
X167494948Y-88465644D01*
X167524325Y-88466065D01*
X167561835Y-88466260D01*
X167608064Y-88466243D01*
X167663598Y-88466023D01*
X167675674Y-88465956D01*
X167904287Y-88464656D01*
X168114770Y-87686276D01*
X168138029Y-87600320D01*
X168160609Y-87516982D01*
X168182369Y-87436774D01*
X168203171Y-87360209D01*
X168222874Y-87287798D01*
X168241337Y-87220053D01*
X168258421Y-87157486D01*
X168273987Y-87100608D01*
X168287892Y-87049933D01*
X168299999Y-87005972D01*
X168310166Y-86969236D01*
X168318253Y-86940238D01*
X168324121Y-86919490D01*
X168327630Y-86907503D01*
X168328627Y-86904572D01*
X168333154Y-86906747D01*
X168345597Y-86913709D01*
X168365310Y-86925070D01*
X168391644Y-86940442D01*
X168423954Y-86959437D01*
X168461590Y-86981667D01*
X168503907Y-87006745D01*
X168550257Y-87034282D01*
X168599993Y-87063891D01*
X168652467Y-87095183D01*
X168707033Y-87127771D01*
X168763042Y-87161267D01*
X168819848Y-87195283D01*
X168876804Y-87229431D01*
X168933261Y-87263323D01*
X168988574Y-87296572D01*
X169042094Y-87328788D01*
X169093175Y-87359586D01*
X169141169Y-87388576D01*
X169185429Y-87415370D01*
X169225308Y-87439582D01*
X169260158Y-87460822D01*
X169289332Y-87478703D01*
X169312184Y-87492837D01*
X169328065Y-87502837D01*
X169336328Y-87508314D01*
X169337248Y-87509039D01*
X169338099Y-87512180D01*
X169337635Y-87519262D01*
X169335702Y-87530911D01*
X169332150Y-87547752D01*
X169326825Y-87570413D01*
X169319576Y-87599519D01*
X169310248Y-87635696D01*
X169298691Y-87679571D01*
X169284751Y-87731769D01*
X169268277Y-87792917D01*
X169266752Y-87798557D01*
X169252825Y-87849964D01*
X169239644Y-87898434D01*
X169227444Y-87943116D01*
X169216458Y-87983159D01*
X169206921Y-88017713D01*
X169199070Y-88045927D01*
X169193137Y-88066951D01*
X169189357Y-88079933D01*
X169187992Y-88084038D01*
X169183350Y-88086957D01*
X169170621Y-88094739D01*
X169150271Y-88107103D01*
X169122770Y-88123768D01*
X169088584Y-88144450D01*
X169048182Y-88168869D01*
X169002032Y-88196743D01*
X168950601Y-88227790D01*
X168894358Y-88261728D01*
X168833771Y-88298275D01*
X168769307Y-88337150D01*
X168701434Y-88378070D01*
X168630620Y-88420755D01*
X168557334Y-88464922D01*
X168482043Y-88510289D01*
X168405215Y-88556575D01*
X168327318Y-88603497D01*
X168248819Y-88650775D01*
X168170188Y-88698126D01*
X168091891Y-88745268D01*
X168014397Y-88791920D01*
X167938174Y-88837800D01*
X167863689Y-88882626D01*
X167791410Y-88926117D01*
X167721806Y-88967990D01*
X167655345Y-89007963D01*
X167592493Y-89045756D01*
X167533720Y-89081086D01*
X167479492Y-89113671D01*
X167430279Y-89143230D01*
X167386548Y-89169480D01*
X167348766Y-89192141D01*
X167317403Y-89210930D01*
X167292925Y-89225565D01*
X167275801Y-89235765D01*
X167266498Y-89241248D01*
X167264866Y-89242156D01*
X167264626Y-89237221D01*
X167264391Y-89222673D01*
X167264162Y-89198899D01*
X167263940Y-89166288D01*
X167263725Y-89125227D01*
X167263518Y-89076103D01*
X167263320Y-89019303D01*
X167263132Y-88955215D01*
X167262955Y-88884227D01*
X167262789Y-88806725D01*
X167262635Y-88723097D01*
X167262494Y-88633731D01*
X167262366Y-88539014D01*
X167262253Y-88439333D01*
X167262154Y-88335076D01*
X167262072Y-88226630D01*
X167262006Y-88114382D01*
X167261958Y-87998721D01*
X167261928Y-87880033D01*
X167261916Y-87758706D01*
X167261916Y-87749362D01*
X167261929Y-87627875D01*
X167261965Y-87509011D01*
X167262025Y-87393157D01*
X167262107Y-87280698D01*
X167262210Y-87172021D01*
X167262334Y-87067513D01*
X167262476Y-86967562D01*
X167262638Y-86872553D01*
X167262816Y-86782872D01*
X167263011Y-86698908D01*
X167263221Y-86621047D01*
X167263446Y-86549674D01*
X167263684Y-86485177D01*
X167263934Y-86427943D01*
X167264196Y-86378359D01*
X167264469Y-86336810D01*
X167264751Y-86303683D01*
X167265042Y-86279366D01*
X167265340Y-86264245D01*
X167265645Y-86258706D01*
X167265669Y-86258689D01*
X167271129Y-86261930D01*
G37*
G36*
X171170651Y-87067191D02*
G01*
X171286096Y-87067292D01*
X171391596Y-87067462D01*
X171487185Y-87067701D01*
X171572893Y-87068007D01*
X171648753Y-87068383D01*
X171714797Y-87068827D01*
X171771056Y-87069341D01*
X171817563Y-87069924D01*
X171854350Y-87070576D01*
X171881447Y-87071298D01*
X171898888Y-87072090D01*
X171904055Y-87072519D01*
X171974299Y-87083620D01*
X172036514Y-87100351D01*
X172090634Y-87122671D01*
X172136594Y-87150536D01*
X172174325Y-87183905D01*
X172203761Y-87222734D01*
X172224835Y-87266980D01*
X172229025Y-87279657D01*
X172234526Y-87306359D01*
X172237535Y-87339836D01*
X172238084Y-87377187D01*
X172236202Y-87415510D01*
X172231921Y-87451903D01*
X172226918Y-87477157D01*
X172222760Y-87493451D01*
X172216376Y-87517620D01*
X172208071Y-87548564D01*
X172198149Y-87585183D01*
X172186915Y-87626376D01*
X172174674Y-87671045D01*
X172161731Y-87718089D01*
X172148390Y-87766407D01*
X172134955Y-87814901D01*
X172121732Y-87862471D01*
X172109025Y-87908017D01*
X172097139Y-87950439D01*
X172086378Y-87988637D01*
X172077047Y-88021511D01*
X172069451Y-88047961D01*
X172063894Y-88066888D01*
X172060819Y-88076789D01*
X172032610Y-88145582D01*
X171996465Y-88208700D01*
X171952821Y-88265634D01*
X171902116Y-88315874D01*
X171844787Y-88358913D01*
X171792745Y-88388671D01*
X171766228Y-88400349D01*
X171732637Y-88412750D01*
X171694777Y-88424986D01*
X171655454Y-88436173D01*
X171617472Y-88445425D01*
X171604318Y-88448180D01*
X171595857Y-88449843D01*
X171587734Y-88451335D01*
X171579382Y-88452666D01*
X171570232Y-88453847D01*
X171559716Y-88454889D01*
X171547266Y-88455802D01*
X171532313Y-88456598D01*
X171514288Y-88457287D01*
X171492625Y-88457880D01*
X171466754Y-88458388D01*
X171436108Y-88458821D01*
X171400117Y-88459191D01*
X171358214Y-88459508D01*
X171309830Y-88459783D01*
X171254397Y-88460026D01*
X171191347Y-88460249D01*
X171120111Y-88460462D01*
X171040122Y-88460676D01*
X170950810Y-88460902D01*
X170931146Y-88460952D01*
X170314501Y-88462492D01*
X170307068Y-88488574D01*
X170304265Y-88498641D01*
X170299189Y-88517114D01*
X170292056Y-88543198D01*
X170283082Y-88576096D01*
X170272483Y-88615013D01*
X170260474Y-88659153D01*
X170247271Y-88707721D01*
X170233091Y-88759920D01*
X170218148Y-88814955D01*
X170202658Y-88872030D01*
X170186838Y-88930349D01*
X170170903Y-88989117D01*
X170155068Y-89047537D01*
X170139550Y-89104815D01*
X170124564Y-89160153D01*
X170110326Y-89212757D01*
X170097052Y-89261831D01*
X170084957Y-89306579D01*
X170074257Y-89346205D01*
X170065168Y-89379914D01*
X170057906Y-89406909D01*
X170052686Y-89426395D01*
X170049724Y-89437576D01*
X170049110Y-89440032D01*
X170044272Y-89440468D01*
X170030419Y-89440873D01*
X170008544Y-89441239D01*
X169979641Y-89441556D01*
X169944703Y-89441816D01*
X169904723Y-89442008D01*
X169860694Y-89442124D01*
X169821431Y-89442156D01*
X169774776Y-89442099D01*
X169731338Y-89441935D01*
X169692110Y-89441677D01*
X169658085Y-89441336D01*
X169630258Y-89440923D01*
X169609620Y-89440451D01*
X169597164Y-89439932D01*
X169593752Y-89439468D01*
X169595032Y-89434157D01*
X169598755Y-89419848D01*
X169604744Y-89397191D01*
X169612822Y-89366840D01*
X169622815Y-89329447D01*
X169634545Y-89285664D01*
X169647836Y-89236143D01*
X169662512Y-89181538D01*
X169678396Y-89122499D01*
X169695313Y-89059680D01*
X169713086Y-88993733D01*
X169731539Y-88925311D01*
X169750494Y-88855064D01*
X169769778Y-88783647D01*
X169789213Y-88711712D01*
X169808622Y-88639909D01*
X169827830Y-88568893D01*
X169846660Y-88499316D01*
X169864936Y-88431829D01*
X169882481Y-88367085D01*
X169899120Y-88305736D01*
X169914676Y-88248435D01*
X169928973Y-88195835D01*
X169941835Y-88148586D01*
X169953085Y-88107343D01*
X169962547Y-88072757D01*
X169970044Y-88045480D01*
X169975401Y-88026165D01*
X169978442Y-88015464D01*
X169979059Y-88013496D01*
X169983763Y-88002335D01*
X170780788Y-88000996D01*
X170887233Y-88000823D01*
X170984128Y-88000667D01*
X171071933Y-88000514D01*
X171151105Y-88000346D01*
X171222103Y-88000149D01*
X171285386Y-87999905D01*
X171341413Y-87999600D01*
X171390641Y-87999218D01*
X171433530Y-87998742D01*
X171470538Y-87998157D01*
X171502123Y-87997447D01*
X171528744Y-87996595D01*
X171550859Y-87995587D01*
X171568928Y-87994406D01*
X171583408Y-87993037D01*
X171594758Y-87991462D01*
X171603436Y-87989668D01*
X171609902Y-87987637D01*
X171614613Y-87985354D01*
X171618028Y-87982803D01*
X171620606Y-87979969D01*
X171622806Y-87976834D01*
X171625084Y-87973384D01*
X171626254Y-87971729D01*
X171629477Y-87964373D01*
X171634952Y-87948455D01*
X171642349Y-87925076D01*
X171651338Y-87895335D01*
X171661589Y-87860331D01*
X171672771Y-87821165D01*
X171684554Y-87778937D01*
X171688803Y-87763476D01*
X171742501Y-87567297D01*
X171732493Y-87553904D01*
X171729848Y-87550108D01*
X171727540Y-87546655D01*
X171725108Y-87543528D01*
X171722088Y-87540711D01*
X171718019Y-87538186D01*
X171712436Y-87535937D01*
X171704878Y-87533946D01*
X171694882Y-87532196D01*
X171681986Y-87530671D01*
X171665726Y-87529353D01*
X171645640Y-87528226D01*
X171621265Y-87527272D01*
X171592139Y-87526475D01*
X171557798Y-87525817D01*
X171517781Y-87525283D01*
X171471624Y-87524853D01*
X171418866Y-87524513D01*
X171359042Y-87524244D01*
X171291691Y-87524030D01*
X171216350Y-87523854D01*
X171132555Y-87523698D01*
X171039846Y-87523546D01*
X170937758Y-87523382D01*
X170898529Y-87523316D01*
X170790159Y-87523100D01*
X170688941Y-87522838D01*
X170595108Y-87522530D01*
X170508894Y-87522178D01*
X170430533Y-87521785D01*
X170360258Y-87521352D01*
X170298305Y-87520881D01*
X170244905Y-87520374D01*
X170200293Y-87519832D01*
X170164703Y-87519258D01*
X170138368Y-87518653D01*
X170121523Y-87518018D01*
X170114400Y-87517357D01*
X170114161Y-87517209D01*
X170115410Y-87511711D01*
X170118945Y-87497752D01*
X170124445Y-87476530D01*
X170131595Y-87449240D01*
X170140073Y-87417078D01*
X170149562Y-87381239D01*
X170159744Y-87342921D01*
X170170299Y-87303318D01*
X170180909Y-87263626D01*
X170191256Y-87225041D01*
X170201020Y-87188760D01*
X170209884Y-87155977D01*
X170217528Y-87127890D01*
X170223634Y-87105693D01*
X170227076Y-87093407D01*
X170234536Y-87067157D01*
X171045231Y-87067157D01*
X171170651Y-87067191D01*
G37*
D10*
%TO.C,Dial_Scale\u002A\u002A*%
X130000000Y-87750000D02*
X129100000Y-87750000D01*
X130120189Y-86606486D02*
X129182797Y-86407237D01*
X130120189Y-88893514D02*
X129345822Y-89058111D01*
X130475500Y-85512949D02*
X129523891Y-85089265D01*
X130475500Y-89987051D02*
X129828406Y-90275156D01*
X131050407Y-84517182D02*
X130140263Y-83855923D01*
X131050407Y-90982818D02*
X130544771Y-91350184D01*
X131819782Y-83662704D02*
X131011249Y-82764737D01*
X131819782Y-91837296D02*
X131457336Y-92239833D01*
X132750001Y-82986861D02*
X132100001Y-81861028D01*
X132750001Y-92513139D02*
X131500001Y-94678203D01*
X132750001Y-92513139D02*
X132500001Y-92946152D01*
X133800407Y-82519190D02*
X133375509Y-81211487D01*
X134925094Y-82280130D02*
X134772657Y-80829786D01*
X136074906Y-82280130D02*
X136236054Y-80746909D01*
X137199593Y-82519190D02*
X137701746Y-80973723D01*
X138249999Y-82986861D02*
X139099999Y-81514618D01*
X138249999Y-92513139D02*
X139499999Y-94678203D01*
X138249999Y-92513139D02*
X139499999Y-94678203D01*
X139180218Y-83662704D02*
X140379077Y-82331236D01*
X139180218Y-91837296D02*
X140825164Y-93664194D01*
X139949593Y-84517182D02*
X141466500Y-83415084D01*
X139949593Y-90982818D02*
X141871008Y-92378808D01*
X140524500Y-85512949D02*
X142313526Y-84716423D01*
X140524500Y-89987051D02*
X142618041Y-90919156D01*
X140879811Y-86606486D02*
X142876863Y-86182000D01*
X140879811Y-88893514D02*
X143039887Y-89352652D01*
X141000000Y-87750000D02*
X143100000Y-87750000D01*
%TD*%
D14*
%TO.C,H2*%
X127500000Y-82500000D03*
%TD*%
%TO.C,H1*%
X172500000Y-82500000D03*
%TD*%
D15*
%TO.C,*%
X161500000Y-91750000D03*
%TD*%
D14*
%TO.C,H3*%
X127500000Y-97500000D03*
%TD*%
D16*
%TO.C,*%
X169750000Y-93350000D03*
%TD*%
D15*
%TO.C,*%
X149500000Y-91750000D03*
%TD*%
D14*
%TO.C,H4*%
X172500000Y-97500000D03*
%TD*%
D17*
%TO.C,Dial_Scale\u002A\u002A*%
X135500000Y-87750000D03*
%TD*%
M02*
