%TF.GenerationSoftware,KiCad,Pcbnew,9.0.6*%
%TF.CreationDate,2025-12-07T09:03:42+07:00*%
%TF.ProjectId,EnclosurePanels_AA202511001M2,456e636c-6f73-4757-9265-50616e656c73,1.0*%
%TF.SameCoordinates,Original*%
%TF.FileFunction,Drillmap*%
%TF.FilePolarity,Positive*%
%FSLAX45Y45*%
G04 Gerber Fmt 4.5, Leading zero omitted, Abs format (unit mm)*
G04 Created by KiCad (PCBNEW 9.0.6) date 2025-12-07 09:03:42*
%MOMM*%
%LPD*%
G01*
G04 APERTURE LIST*
%ADD10C,0.050000*%
%ADD11C,0.200000*%
%ADD12C,0.800000*%
G04 APERTURE END LIST*
D10*
X13430000Y-9350000D02*
G75*
G02*
X13460000Y-9320000I30000J0D01*
G01*
X13670000Y-9350000D02*
X13670000Y-9410000D01*
X13460000Y-9440000D02*
G75*
G02*
X13430000Y-9410000I0J30000D01*
G01*
X12750000Y-10000000D02*
G75*
G02*
X12500000Y-9750000I0J250000D01*
G01*
X17500000Y-8250000D02*
X17500000Y-9750000D01*
X17250000Y-10000000D02*
X12750000Y-10000000D01*
X12500000Y-8250000D02*
G75*
G02*
X12750000Y-8000000I250000J0D01*
G01*
X13460000Y-9320000D02*
X13640000Y-9320000D01*
X17250000Y-8000000D02*
G75*
G02*
X17500000Y-8250000I0J-250000D01*
G01*
X13640000Y-9440000D02*
X13460000Y-9440000D01*
X13640000Y-9320000D02*
G75*
G02*
X13670000Y-9350000I0J-30000D01*
G01*
X12500000Y-9750000D02*
X12500000Y-8250000D01*
X17500000Y-9750000D02*
G75*
G02*
X17250000Y-10000000I-250000J0D01*
G01*
X13670000Y-9410000D02*
G75*
G02*
X13640000Y-9440000I-30000J0D01*
G01*
X12750000Y-8000000D02*
X17250000Y-8000000D01*
X13430000Y-9410000D02*
X13430000Y-9350000D01*
D11*
D12*
X13150000Y-8375000D02*
X13950000Y-9175000D01*
X13950000Y-8375000D02*
X13150000Y-9175000D01*
D11*
X12758277Y-10313984D02*
X12758277Y-10113984D01*
X12758277Y-10113984D02*
X12805896Y-10113984D01*
X12805896Y-10113984D02*
X12834467Y-10123508D01*
X12834467Y-10123508D02*
X12853515Y-10142555D01*
X12853515Y-10142555D02*
X12863039Y-10161603D01*
X12863039Y-10161603D02*
X12872562Y-10199698D01*
X12872562Y-10199698D02*
X12872562Y-10228270D01*
X12872562Y-10228270D02*
X12863039Y-10266365D01*
X12863039Y-10266365D02*
X12853515Y-10285412D01*
X12853515Y-10285412D02*
X12834467Y-10304460D01*
X12834467Y-10304460D02*
X12805896Y-10313984D01*
X12805896Y-10313984D02*
X12758277Y-10313984D01*
X12958277Y-10313984D02*
X12958277Y-10180650D01*
X12958277Y-10218746D02*
X12967801Y-10199698D01*
X12967801Y-10199698D02*
X12977324Y-10190174D01*
X12977324Y-10190174D02*
X12996372Y-10180650D01*
X12996372Y-10180650D02*
X13015420Y-10180650D01*
X13082086Y-10313984D02*
X13082086Y-10180650D01*
X13082086Y-10113984D02*
X13072562Y-10123508D01*
X13072562Y-10123508D02*
X13082086Y-10133031D01*
X13082086Y-10133031D02*
X13091610Y-10123508D01*
X13091610Y-10123508D02*
X13082086Y-10113984D01*
X13082086Y-10113984D02*
X13082086Y-10133031D01*
X13205896Y-10313984D02*
X13186848Y-10304460D01*
X13186848Y-10304460D02*
X13177324Y-10285412D01*
X13177324Y-10285412D02*
X13177324Y-10113984D01*
X13310658Y-10313984D02*
X13291610Y-10304460D01*
X13291610Y-10304460D02*
X13282086Y-10285412D01*
X13282086Y-10285412D02*
X13282086Y-10113984D01*
X13539229Y-10313984D02*
X13539229Y-10113984D01*
X13539229Y-10113984D02*
X13605896Y-10256841D01*
X13605896Y-10256841D02*
X13672562Y-10113984D01*
X13672562Y-10113984D02*
X13672562Y-10313984D01*
X13853515Y-10313984D02*
X13853515Y-10209222D01*
X13853515Y-10209222D02*
X13843991Y-10190174D01*
X13843991Y-10190174D02*
X13824943Y-10180650D01*
X13824943Y-10180650D02*
X13786848Y-10180650D01*
X13786848Y-10180650D02*
X13767801Y-10190174D01*
X13853515Y-10304460D02*
X13834467Y-10313984D01*
X13834467Y-10313984D02*
X13786848Y-10313984D01*
X13786848Y-10313984D02*
X13767801Y-10304460D01*
X13767801Y-10304460D02*
X13758277Y-10285412D01*
X13758277Y-10285412D02*
X13758277Y-10266365D01*
X13758277Y-10266365D02*
X13767801Y-10247317D01*
X13767801Y-10247317D02*
X13786848Y-10237793D01*
X13786848Y-10237793D02*
X13834467Y-10237793D01*
X13834467Y-10237793D02*
X13853515Y-10228270D01*
X13948753Y-10180650D02*
X13948753Y-10380650D01*
X13948753Y-10190174D02*
X13967801Y-10180650D01*
X13967801Y-10180650D02*
X14005896Y-10180650D01*
X14005896Y-10180650D02*
X14024943Y-10190174D01*
X14024943Y-10190174D02*
X14034467Y-10199698D01*
X14034467Y-10199698D02*
X14043991Y-10218746D01*
X14043991Y-10218746D02*
X14043991Y-10275889D01*
X14043991Y-10275889D02*
X14034467Y-10294936D01*
X14034467Y-10294936D02*
X14024943Y-10304460D01*
X14024943Y-10304460D02*
X14005896Y-10313984D01*
X14005896Y-10313984D02*
X13967801Y-10313984D01*
X13967801Y-10313984D02*
X13948753Y-10304460D01*
X14129705Y-10294936D02*
X14139229Y-10304460D01*
X14139229Y-10304460D02*
X14129705Y-10313984D01*
X14129705Y-10313984D02*
X14120182Y-10304460D01*
X14120182Y-10304460D02*
X14129705Y-10294936D01*
X14129705Y-10294936D02*
X14129705Y-10313984D01*
X14129705Y-10190174D02*
X14139229Y-10199698D01*
X14139229Y-10199698D02*
X14129705Y-10209222D01*
X14129705Y-10209222D02*
X14120182Y-10199698D01*
X14120182Y-10199698D02*
X14129705Y-10190174D01*
X14129705Y-10190174D02*
X14129705Y-10209222D01*
X12297500Y-10542500D02*
X12497500Y-10742500D01*
X12497500Y-10542500D02*
X12297500Y-10742500D01*
X12786848Y-10619698D02*
X12767801Y-10610174D01*
X12767801Y-10610174D02*
X12758277Y-10600650D01*
X12758277Y-10600650D02*
X12748753Y-10581603D01*
X12748753Y-10581603D02*
X12748753Y-10572079D01*
X12748753Y-10572079D02*
X12758277Y-10553031D01*
X12758277Y-10553031D02*
X12767801Y-10543508D01*
X12767801Y-10543508D02*
X12786848Y-10533984D01*
X12786848Y-10533984D02*
X12824943Y-10533984D01*
X12824943Y-10533984D02*
X12843991Y-10543508D01*
X12843991Y-10543508D02*
X12853515Y-10553031D01*
X12853515Y-10553031D02*
X12863039Y-10572079D01*
X12863039Y-10572079D02*
X12863039Y-10581603D01*
X12863039Y-10581603D02*
X12853515Y-10600650D01*
X12853515Y-10600650D02*
X12843991Y-10610174D01*
X12843991Y-10610174D02*
X12824943Y-10619698D01*
X12824943Y-10619698D02*
X12786848Y-10619698D01*
X12786848Y-10619698D02*
X12767801Y-10629222D01*
X12767801Y-10629222D02*
X12758277Y-10638746D01*
X12758277Y-10638746D02*
X12748753Y-10657793D01*
X12748753Y-10657793D02*
X12748753Y-10695889D01*
X12748753Y-10695889D02*
X12758277Y-10714936D01*
X12758277Y-10714936D02*
X12767801Y-10724460D01*
X12767801Y-10724460D02*
X12786848Y-10733984D01*
X12786848Y-10733984D02*
X12824943Y-10733984D01*
X12824943Y-10733984D02*
X12843991Y-10724460D01*
X12843991Y-10724460D02*
X12853515Y-10714936D01*
X12853515Y-10714936D02*
X12863039Y-10695889D01*
X12863039Y-10695889D02*
X12863039Y-10657793D01*
X12863039Y-10657793D02*
X12853515Y-10638746D01*
X12853515Y-10638746D02*
X12843991Y-10629222D01*
X12843991Y-10629222D02*
X12824943Y-10619698D01*
X12948753Y-10714936D02*
X12958277Y-10724460D01*
X12958277Y-10724460D02*
X12948753Y-10733984D01*
X12948753Y-10733984D02*
X12939229Y-10724460D01*
X12939229Y-10724460D02*
X12948753Y-10714936D01*
X12948753Y-10714936D02*
X12948753Y-10733984D01*
X13082086Y-10533984D02*
X13101134Y-10533984D01*
X13101134Y-10533984D02*
X13120182Y-10543508D01*
X13120182Y-10543508D02*
X13129705Y-10553031D01*
X13129705Y-10553031D02*
X13139229Y-10572079D01*
X13139229Y-10572079D02*
X13148753Y-10610174D01*
X13148753Y-10610174D02*
X13148753Y-10657793D01*
X13148753Y-10657793D02*
X13139229Y-10695889D01*
X13139229Y-10695889D02*
X13129705Y-10714936D01*
X13129705Y-10714936D02*
X13120182Y-10724460D01*
X13120182Y-10724460D02*
X13101134Y-10733984D01*
X13101134Y-10733984D02*
X13082086Y-10733984D01*
X13082086Y-10733984D02*
X13063039Y-10724460D01*
X13063039Y-10724460D02*
X13053515Y-10714936D01*
X13053515Y-10714936D02*
X13043991Y-10695889D01*
X13043991Y-10695889D02*
X13034467Y-10657793D01*
X13034467Y-10657793D02*
X13034467Y-10610174D01*
X13034467Y-10610174D02*
X13043991Y-10572079D01*
X13043991Y-10572079D02*
X13053515Y-10553031D01*
X13053515Y-10553031D02*
X13063039Y-10543508D01*
X13063039Y-10543508D02*
X13082086Y-10533984D01*
X13272562Y-10533984D02*
X13291610Y-10533984D01*
X13291610Y-10533984D02*
X13310658Y-10543508D01*
X13310658Y-10543508D02*
X13320182Y-10553031D01*
X13320182Y-10553031D02*
X13329705Y-10572079D01*
X13329705Y-10572079D02*
X13339229Y-10610174D01*
X13339229Y-10610174D02*
X13339229Y-10657793D01*
X13339229Y-10657793D02*
X13329705Y-10695889D01*
X13329705Y-10695889D02*
X13320182Y-10714936D01*
X13320182Y-10714936D02*
X13310658Y-10724460D01*
X13310658Y-10724460D02*
X13291610Y-10733984D01*
X13291610Y-10733984D02*
X13272562Y-10733984D01*
X13272562Y-10733984D02*
X13253515Y-10724460D01*
X13253515Y-10724460D02*
X13243991Y-10714936D01*
X13243991Y-10714936D02*
X13234467Y-10695889D01*
X13234467Y-10695889D02*
X13224943Y-10657793D01*
X13224943Y-10657793D02*
X13224943Y-10610174D01*
X13224943Y-10610174D02*
X13234467Y-10572079D01*
X13234467Y-10572079D02*
X13243991Y-10553031D01*
X13243991Y-10553031D02*
X13253515Y-10543508D01*
X13253515Y-10543508D02*
X13272562Y-10533984D01*
X13463039Y-10533984D02*
X13482086Y-10533984D01*
X13482086Y-10533984D02*
X13501134Y-10543508D01*
X13501134Y-10543508D02*
X13510658Y-10553031D01*
X13510658Y-10553031D02*
X13520182Y-10572079D01*
X13520182Y-10572079D02*
X13529705Y-10610174D01*
X13529705Y-10610174D02*
X13529705Y-10657793D01*
X13529705Y-10657793D02*
X13520182Y-10695889D01*
X13520182Y-10695889D02*
X13510658Y-10714936D01*
X13510658Y-10714936D02*
X13501134Y-10724460D01*
X13501134Y-10724460D02*
X13482086Y-10733984D01*
X13482086Y-10733984D02*
X13463039Y-10733984D01*
X13463039Y-10733984D02*
X13443991Y-10724460D01*
X13443991Y-10724460D02*
X13434467Y-10714936D01*
X13434467Y-10714936D02*
X13424943Y-10695889D01*
X13424943Y-10695889D02*
X13415420Y-10657793D01*
X13415420Y-10657793D02*
X13415420Y-10610174D01*
X13415420Y-10610174D02*
X13424943Y-10572079D01*
X13424943Y-10572079D02*
X13434467Y-10553031D01*
X13434467Y-10553031D02*
X13443991Y-10543508D01*
X13443991Y-10543508D02*
X13463039Y-10533984D01*
X13615420Y-10733984D02*
X13615420Y-10600650D01*
X13615420Y-10619698D02*
X13624943Y-10610174D01*
X13624943Y-10610174D02*
X13643991Y-10600650D01*
X13643991Y-10600650D02*
X13672563Y-10600650D01*
X13672563Y-10600650D02*
X13691610Y-10610174D01*
X13691610Y-10610174D02*
X13701134Y-10629222D01*
X13701134Y-10629222D02*
X13701134Y-10733984D01*
X13701134Y-10629222D02*
X13710658Y-10610174D01*
X13710658Y-10610174D02*
X13729705Y-10600650D01*
X13729705Y-10600650D02*
X13758277Y-10600650D01*
X13758277Y-10600650D02*
X13777324Y-10610174D01*
X13777324Y-10610174D02*
X13786848Y-10629222D01*
X13786848Y-10629222D02*
X13786848Y-10733984D01*
X13882086Y-10733984D02*
X13882086Y-10600650D01*
X13882086Y-10619698D02*
X13891610Y-10610174D01*
X13891610Y-10610174D02*
X13910658Y-10600650D01*
X13910658Y-10600650D02*
X13939229Y-10600650D01*
X13939229Y-10600650D02*
X13958277Y-10610174D01*
X13958277Y-10610174D02*
X13967801Y-10629222D01*
X13967801Y-10629222D02*
X13967801Y-10733984D01*
X13967801Y-10629222D02*
X13977324Y-10610174D01*
X13977324Y-10610174D02*
X13996372Y-10600650D01*
X13996372Y-10600650D02*
X14024943Y-10600650D01*
X14024943Y-10600650D02*
X14043991Y-10610174D01*
X14043991Y-10610174D02*
X14053515Y-10629222D01*
X14053515Y-10629222D02*
X14053515Y-10733984D01*
X14443991Y-10524460D02*
X14272563Y-10781603D01*
X14701134Y-10533984D02*
X14720182Y-10533984D01*
X14720182Y-10533984D02*
X14739229Y-10543508D01*
X14739229Y-10543508D02*
X14748753Y-10553031D01*
X14748753Y-10553031D02*
X14758277Y-10572079D01*
X14758277Y-10572079D02*
X14767801Y-10610174D01*
X14767801Y-10610174D02*
X14767801Y-10657793D01*
X14767801Y-10657793D02*
X14758277Y-10695889D01*
X14758277Y-10695889D02*
X14748753Y-10714936D01*
X14748753Y-10714936D02*
X14739229Y-10724460D01*
X14739229Y-10724460D02*
X14720182Y-10733984D01*
X14720182Y-10733984D02*
X14701134Y-10733984D01*
X14701134Y-10733984D02*
X14682086Y-10724460D01*
X14682086Y-10724460D02*
X14672563Y-10714936D01*
X14672563Y-10714936D02*
X14663039Y-10695889D01*
X14663039Y-10695889D02*
X14653515Y-10657793D01*
X14653515Y-10657793D02*
X14653515Y-10610174D01*
X14653515Y-10610174D02*
X14663039Y-10572079D01*
X14663039Y-10572079D02*
X14672563Y-10553031D01*
X14672563Y-10553031D02*
X14682086Y-10543508D01*
X14682086Y-10543508D02*
X14701134Y-10533984D01*
X14853515Y-10714936D02*
X14863039Y-10724460D01*
X14863039Y-10724460D02*
X14853515Y-10733984D01*
X14853515Y-10733984D02*
X14843991Y-10724460D01*
X14843991Y-10724460D02*
X14853515Y-10714936D01*
X14853515Y-10714936D02*
X14853515Y-10733984D01*
X14929706Y-10533984D02*
X15053515Y-10533984D01*
X15053515Y-10533984D02*
X14986848Y-10610174D01*
X14986848Y-10610174D02*
X15015420Y-10610174D01*
X15015420Y-10610174D02*
X15034467Y-10619698D01*
X15034467Y-10619698D02*
X15043991Y-10629222D01*
X15043991Y-10629222D02*
X15053515Y-10648270D01*
X15053515Y-10648270D02*
X15053515Y-10695889D01*
X15053515Y-10695889D02*
X15043991Y-10714936D01*
X15043991Y-10714936D02*
X15034467Y-10724460D01*
X15034467Y-10724460D02*
X15015420Y-10733984D01*
X15015420Y-10733984D02*
X14958277Y-10733984D01*
X14958277Y-10733984D02*
X14939229Y-10724460D01*
X14939229Y-10724460D02*
X14929706Y-10714936D01*
X15243991Y-10733984D02*
X15129706Y-10733984D01*
X15186848Y-10733984D02*
X15186848Y-10533984D01*
X15186848Y-10533984D02*
X15167801Y-10562555D01*
X15167801Y-10562555D02*
X15148753Y-10581603D01*
X15148753Y-10581603D02*
X15129706Y-10591127D01*
X15424944Y-10533984D02*
X15329706Y-10533984D01*
X15329706Y-10533984D02*
X15320182Y-10629222D01*
X15320182Y-10629222D02*
X15329706Y-10619698D01*
X15329706Y-10619698D02*
X15348753Y-10610174D01*
X15348753Y-10610174D02*
X15396372Y-10610174D01*
X15396372Y-10610174D02*
X15415420Y-10619698D01*
X15415420Y-10619698D02*
X15424944Y-10629222D01*
X15424944Y-10629222D02*
X15434467Y-10648270D01*
X15434467Y-10648270D02*
X15434467Y-10695889D01*
X15434467Y-10695889D02*
X15424944Y-10714936D01*
X15424944Y-10714936D02*
X15415420Y-10724460D01*
X15415420Y-10724460D02*
X15396372Y-10733984D01*
X15396372Y-10733984D02*
X15348753Y-10733984D01*
X15348753Y-10733984D02*
X15329706Y-10724460D01*
X15329706Y-10724460D02*
X15320182Y-10714936D01*
X15558277Y-10533984D02*
X15577325Y-10533984D01*
X15577325Y-10533984D02*
X15596372Y-10543508D01*
X15596372Y-10543508D02*
X15605896Y-10553031D01*
X15605896Y-10553031D02*
X15615420Y-10572079D01*
X15615420Y-10572079D02*
X15624944Y-10610174D01*
X15624944Y-10610174D02*
X15624944Y-10657793D01*
X15624944Y-10657793D02*
X15615420Y-10695889D01*
X15615420Y-10695889D02*
X15605896Y-10714936D01*
X15605896Y-10714936D02*
X15596372Y-10724460D01*
X15596372Y-10724460D02*
X15577325Y-10733984D01*
X15577325Y-10733984D02*
X15558277Y-10733984D01*
X15558277Y-10733984D02*
X15539229Y-10724460D01*
X15539229Y-10724460D02*
X15529706Y-10714936D01*
X15529706Y-10714936D02*
X15520182Y-10695889D01*
X15520182Y-10695889D02*
X15510658Y-10657793D01*
X15510658Y-10657793D02*
X15510658Y-10610174D01*
X15510658Y-10610174D02*
X15520182Y-10572079D01*
X15520182Y-10572079D02*
X15529706Y-10553031D01*
X15529706Y-10553031D02*
X15539229Y-10543508D01*
X15539229Y-10543508D02*
X15558277Y-10533984D01*
X15701134Y-10533984D02*
X15701134Y-10572079D01*
X15777325Y-10533984D02*
X15777325Y-10572079D01*
X16072563Y-10810174D02*
X16063039Y-10800650D01*
X16063039Y-10800650D02*
X16043991Y-10772079D01*
X16043991Y-10772079D02*
X16034468Y-10753031D01*
X16034468Y-10753031D02*
X16024944Y-10724460D01*
X16024944Y-10724460D02*
X16015420Y-10676841D01*
X16015420Y-10676841D02*
X16015420Y-10638746D01*
X16015420Y-10638746D02*
X16024944Y-10591127D01*
X16024944Y-10591127D02*
X16034468Y-10562555D01*
X16034468Y-10562555D02*
X16043991Y-10543508D01*
X16043991Y-10543508D02*
X16063039Y-10514936D01*
X16063039Y-10514936D02*
X16072563Y-10505412D01*
X16253515Y-10733984D02*
X16139229Y-10733984D01*
X16196372Y-10733984D02*
X16196372Y-10533984D01*
X16196372Y-10533984D02*
X16177325Y-10562555D01*
X16177325Y-10562555D02*
X16158277Y-10581603D01*
X16158277Y-10581603D02*
X16139229Y-10591127D01*
X16491610Y-10733984D02*
X16491610Y-10533984D01*
X16577325Y-10733984D02*
X16577325Y-10629222D01*
X16577325Y-10629222D02*
X16567801Y-10610174D01*
X16567801Y-10610174D02*
X16548753Y-10600650D01*
X16548753Y-10600650D02*
X16520182Y-10600650D01*
X16520182Y-10600650D02*
X16501134Y-10610174D01*
X16501134Y-10610174D02*
X16491610Y-10619698D01*
X16701134Y-10733984D02*
X16682087Y-10724460D01*
X16682087Y-10724460D02*
X16672563Y-10714936D01*
X16672563Y-10714936D02*
X16663039Y-10695889D01*
X16663039Y-10695889D02*
X16663039Y-10638746D01*
X16663039Y-10638746D02*
X16672563Y-10619698D01*
X16672563Y-10619698D02*
X16682087Y-10610174D01*
X16682087Y-10610174D02*
X16701134Y-10600650D01*
X16701134Y-10600650D02*
X16729706Y-10600650D01*
X16729706Y-10600650D02*
X16748753Y-10610174D01*
X16748753Y-10610174D02*
X16758277Y-10619698D01*
X16758277Y-10619698D02*
X16767801Y-10638746D01*
X16767801Y-10638746D02*
X16767801Y-10695889D01*
X16767801Y-10695889D02*
X16758277Y-10714936D01*
X16758277Y-10714936D02*
X16748753Y-10724460D01*
X16748753Y-10724460D02*
X16729706Y-10733984D01*
X16729706Y-10733984D02*
X16701134Y-10733984D01*
X16882087Y-10733984D02*
X16863039Y-10724460D01*
X16863039Y-10724460D02*
X16853515Y-10705412D01*
X16853515Y-10705412D02*
X16853515Y-10533984D01*
X17034468Y-10724460D02*
X17015420Y-10733984D01*
X17015420Y-10733984D02*
X16977325Y-10733984D01*
X16977325Y-10733984D02*
X16958277Y-10724460D01*
X16958277Y-10724460D02*
X16948753Y-10705412D01*
X16948753Y-10705412D02*
X16948753Y-10629222D01*
X16948753Y-10629222D02*
X16958277Y-10610174D01*
X16958277Y-10610174D02*
X16977325Y-10600650D01*
X16977325Y-10600650D02*
X17015420Y-10600650D01*
X17015420Y-10600650D02*
X17034468Y-10610174D01*
X17034468Y-10610174D02*
X17043992Y-10629222D01*
X17043992Y-10629222D02*
X17043992Y-10648270D01*
X17043992Y-10648270D02*
X16948753Y-10667317D01*
X17110658Y-10810174D02*
X17120182Y-10800650D01*
X17120182Y-10800650D02*
X17139230Y-10772079D01*
X17139230Y-10772079D02*
X17148753Y-10753031D01*
X17148753Y-10753031D02*
X17158277Y-10724460D01*
X17158277Y-10724460D02*
X17167801Y-10676841D01*
X17167801Y-10676841D02*
X17167801Y-10638746D01*
X17167801Y-10638746D02*
X17158277Y-10591127D01*
X17158277Y-10591127D02*
X17148753Y-10562555D01*
X17148753Y-10562555D02*
X17139230Y-10543508D01*
X17139230Y-10543508D02*
X17120182Y-10514936D01*
X17120182Y-10514936D02*
X17110658Y-10505412D01*
M02*
