%TF.GenerationSoftware,KiCad,Pcbnew,9.0.6*%
%TF.CreationDate,2025-12-07T09:03:39+07:00*%
%TF.ProjectId,EnclosurePanels_AA202511001M2,456e636c-6f73-4757-9265-50616e656c73,1.0*%
%TF.SameCoordinates,Original*%
%TF.FileFunction,Copper,L2,Bot*%
%TF.FilePolarity,Positive*%
%FSLAX46Y46*%
G04 Gerber Fmt 4.6, Leading zero omitted, Abs format (unit mm)*
G04 Created by KiCad (PCBNEW 9.0.6) date 2025-12-07 09:03:39*
%MOMM*%
%LPD*%
G01*
G04 APERTURE LIST*
%TA.AperFunction,ComponentPad*%
%ADD10C,10.000000*%
%TD*%
G04 APERTURE END LIST*
D10*
%TO.P,Dial_Scale\u002A\u002A,*%
%TO.N,GND*%
X135500000Y-87750000D03*
%TD*%
%TA.AperFunction,Conductor*%
%TO.N,GND*%
G36*
X172503736Y-80250726D02*
G01*
X172763662Y-80266448D01*
X172778524Y-80268253D01*
X172849528Y-80281264D01*
X173030969Y-80314515D01*
X173045498Y-80318096D01*
X173290523Y-80394449D01*
X173304516Y-80399755D01*
X173538562Y-80505091D01*
X173551808Y-80512044D01*
X173771449Y-80644821D01*
X173783760Y-80653319D01*
X173797810Y-80664326D01*
X173985792Y-80811601D01*
X173997000Y-80821531D01*
X174178468Y-81002999D01*
X174188398Y-81014207D01*
X174346676Y-81216233D01*
X174355182Y-81228556D01*
X174487952Y-81448185D01*
X174494911Y-81461444D01*
X174600242Y-81695480D01*
X174605551Y-81709480D01*
X174681901Y-81954494D01*
X174685485Y-81969034D01*
X174731746Y-82221475D01*
X174733551Y-82236339D01*
X174749274Y-82496263D01*
X174749500Y-82503750D01*
X174749500Y-97496249D01*
X174749274Y-97503736D01*
X174733551Y-97763660D01*
X174731746Y-97778524D01*
X174685485Y-98030965D01*
X174681901Y-98045505D01*
X174605551Y-98290519D01*
X174600242Y-98304519D01*
X174494911Y-98538555D01*
X174487952Y-98551814D01*
X174355182Y-98771443D01*
X174346676Y-98783766D01*
X174188398Y-98985792D01*
X174178468Y-98997000D01*
X173997000Y-99178468D01*
X173985792Y-99188398D01*
X173783766Y-99346676D01*
X173771443Y-99355182D01*
X173551814Y-99487952D01*
X173538555Y-99494911D01*
X173304519Y-99600242D01*
X173290519Y-99605551D01*
X173045505Y-99681901D01*
X173030965Y-99685485D01*
X172778524Y-99731746D01*
X172763660Y-99733551D01*
X172503736Y-99749274D01*
X172496249Y-99749500D01*
X127503751Y-99749500D01*
X127496264Y-99749274D01*
X127236339Y-99733551D01*
X127221475Y-99731746D01*
X126969034Y-99685485D01*
X126954494Y-99681901D01*
X126709480Y-99605551D01*
X126695480Y-99600242D01*
X126461444Y-99494911D01*
X126448185Y-99487952D01*
X126228556Y-99355182D01*
X126216233Y-99346676D01*
X126014207Y-99188398D01*
X126002999Y-99178468D01*
X125821531Y-98997000D01*
X125811601Y-98985792D01*
X125794178Y-98963553D01*
X125653319Y-98783760D01*
X125644821Y-98771449D01*
X125512044Y-98551808D01*
X125505091Y-98538562D01*
X125399755Y-98304516D01*
X125394448Y-98290519D01*
X125393175Y-98286433D01*
X125318096Y-98045498D01*
X125314514Y-98030965D01*
X125301775Y-97961452D01*
X125268253Y-97778524D01*
X125266448Y-97763660D01*
X125250726Y-97503736D01*
X125250500Y-97496249D01*
X125250500Y-97381902D01*
X125999500Y-97381902D01*
X125999500Y-97618097D01*
X126036446Y-97851368D01*
X126109433Y-98075996D01*
X126204532Y-98262636D01*
X126216657Y-98286433D01*
X126355483Y-98477510D01*
X126522490Y-98644517D01*
X126713567Y-98783343D01*
X126810171Y-98832565D01*
X126924003Y-98890566D01*
X126924005Y-98890566D01*
X126924008Y-98890568D01*
X127044412Y-98929689D01*
X127148631Y-98963553D01*
X127381903Y-99000500D01*
X127381908Y-99000500D01*
X127618097Y-99000500D01*
X127851368Y-98963553D01*
X128075992Y-98890568D01*
X128286433Y-98783343D01*
X128477510Y-98644517D01*
X128644517Y-98477510D01*
X128783343Y-98286433D01*
X128890568Y-98075992D01*
X128963553Y-97851368D01*
X129000500Y-97618097D01*
X129000500Y-97381902D01*
X170999500Y-97381902D01*
X170999500Y-97618097D01*
X171036446Y-97851368D01*
X171109433Y-98075996D01*
X171204532Y-98262636D01*
X171216657Y-98286433D01*
X171355483Y-98477510D01*
X171522490Y-98644517D01*
X171713567Y-98783343D01*
X171810171Y-98832565D01*
X171924003Y-98890566D01*
X171924005Y-98890566D01*
X171924008Y-98890568D01*
X172044412Y-98929689D01*
X172148631Y-98963553D01*
X172381903Y-99000500D01*
X172381908Y-99000500D01*
X172618097Y-99000500D01*
X172851368Y-98963553D01*
X173075992Y-98890568D01*
X173286433Y-98783343D01*
X173477510Y-98644517D01*
X173644517Y-98477510D01*
X173783343Y-98286433D01*
X173890568Y-98075992D01*
X173963553Y-97851368D01*
X174000500Y-97618097D01*
X174000500Y-97381902D01*
X173963553Y-97148631D01*
X173890566Y-96924003D01*
X173783342Y-96713566D01*
X173644517Y-96522490D01*
X173477510Y-96355483D01*
X173286433Y-96216657D01*
X173075996Y-96109433D01*
X172851368Y-96036446D01*
X172618097Y-95999500D01*
X172618092Y-95999500D01*
X172381908Y-95999500D01*
X172381903Y-95999500D01*
X172148631Y-96036446D01*
X171924003Y-96109433D01*
X171713566Y-96216657D01*
X171604550Y-96295862D01*
X171522490Y-96355483D01*
X171522488Y-96355485D01*
X171522487Y-96355485D01*
X171355485Y-96522487D01*
X171355485Y-96522488D01*
X171355483Y-96522490D01*
X171295862Y-96604550D01*
X171216657Y-96713566D01*
X171109433Y-96924003D01*
X171036446Y-97148631D01*
X170999500Y-97381902D01*
X129000500Y-97381902D01*
X128963553Y-97148631D01*
X128890566Y-96924003D01*
X128783342Y-96713566D01*
X128644517Y-96522490D01*
X128477510Y-96355483D01*
X128286433Y-96216657D01*
X128075996Y-96109433D01*
X127851368Y-96036446D01*
X127618097Y-95999500D01*
X127618092Y-95999500D01*
X127381908Y-95999500D01*
X127381903Y-95999500D01*
X127148631Y-96036446D01*
X126924003Y-96109433D01*
X126713566Y-96216657D01*
X126604550Y-96295862D01*
X126522490Y-96355483D01*
X126522488Y-96355485D01*
X126522487Y-96355485D01*
X126355485Y-96522487D01*
X126355485Y-96522488D01*
X126355483Y-96522490D01*
X126295862Y-96604550D01*
X126216657Y-96713566D01*
X126109433Y-96924003D01*
X126036446Y-97148631D01*
X125999500Y-97381902D01*
X125250500Y-97381902D01*
X125250500Y-93437972D01*
X134049500Y-93437972D01*
X134049500Y-94162027D01*
X134077106Y-94282973D01*
X134130929Y-94394737D01*
X134208275Y-94491725D01*
X134305263Y-94569071D01*
X134348005Y-94589654D01*
X134417026Y-94622893D01*
X134417028Y-94622893D01*
X134417031Y-94622895D01*
X134537974Y-94650500D01*
X136462026Y-94650500D01*
X136582969Y-94622895D01*
X136694737Y-94569071D01*
X136791725Y-94491725D01*
X136869071Y-94394737D01*
X136922895Y-94282969D01*
X136950500Y-94162026D01*
X136950500Y-94100000D01*
X136950500Y-94055830D01*
X136950500Y-93450172D01*
X136950500Y-93437974D01*
X136922895Y-93317031D01*
X136869071Y-93205263D01*
X136791725Y-93108275D01*
X136694737Y-93030929D01*
X136582973Y-92977106D01*
X136582974Y-92977106D01*
X136462027Y-92949500D01*
X136462026Y-92949500D01*
X136449828Y-92949500D01*
X134644170Y-92949500D01*
X134600000Y-92949500D01*
X134537974Y-92949500D01*
X134537972Y-92949500D01*
X134417026Y-92977106D01*
X134305262Y-93030929D01*
X134208275Y-93108275D01*
X134130929Y-93205262D01*
X134077106Y-93317026D01*
X134049500Y-93437972D01*
X125250500Y-93437972D01*
X125250500Y-91584296D01*
X146549500Y-91584296D01*
X146549500Y-91915703D01*
X146586601Y-92244991D01*
X146586604Y-92245005D01*
X146660346Y-92568093D01*
X146660349Y-92568101D01*
X146769799Y-92880890D01*
X146913582Y-93179458D01*
X146913584Y-93179461D01*
X147089896Y-93460060D01*
X147296516Y-93719153D01*
X147530847Y-93953484D01*
X147789940Y-94160104D01*
X148070539Y-94336416D01*
X148369113Y-94480202D01*
X148604037Y-94562405D01*
X148681898Y-94589650D01*
X148681906Y-94589653D01*
X148681909Y-94589653D01*
X148681910Y-94589654D01*
X149004994Y-94663396D01*
X149005003Y-94663397D01*
X149005008Y-94663398D01*
X149224533Y-94688132D01*
X149334297Y-94700499D01*
X149334300Y-94700500D01*
X149334303Y-94700500D01*
X149665700Y-94700500D01*
X149665701Y-94700499D01*
X149833996Y-94681537D01*
X149994991Y-94663398D01*
X149994994Y-94663397D01*
X149995006Y-94663396D01*
X150318090Y-94589654D01*
X150630887Y-94480202D01*
X150929461Y-94336416D01*
X151210060Y-94160104D01*
X151469153Y-93953484D01*
X151703484Y-93719153D01*
X151910104Y-93460060D01*
X152086416Y-93179461D01*
X152230202Y-92880887D01*
X152339654Y-92568090D01*
X152413396Y-92245006D01*
X152415332Y-92227829D01*
X152450499Y-91915703D01*
X152450500Y-91915699D01*
X152450500Y-91584300D01*
X152450499Y-91584296D01*
X158549500Y-91584296D01*
X158549500Y-91915703D01*
X158586601Y-92244991D01*
X158586604Y-92245005D01*
X158660346Y-92568093D01*
X158660349Y-92568101D01*
X158769799Y-92880890D01*
X158913582Y-93179458D01*
X158913584Y-93179461D01*
X159089896Y-93460060D01*
X159296516Y-93719153D01*
X159530847Y-93953484D01*
X159789940Y-94160104D01*
X160070539Y-94336416D01*
X160369113Y-94480202D01*
X160604037Y-94562405D01*
X160681898Y-94589650D01*
X160681906Y-94589653D01*
X160681909Y-94589653D01*
X160681910Y-94589654D01*
X161004994Y-94663396D01*
X161005003Y-94663397D01*
X161005008Y-94663398D01*
X161224533Y-94688132D01*
X161334297Y-94700499D01*
X161334300Y-94700500D01*
X161334303Y-94700500D01*
X161665700Y-94700500D01*
X161665701Y-94700499D01*
X161833996Y-94681537D01*
X161994991Y-94663398D01*
X161994994Y-94663397D01*
X161995006Y-94663396D01*
X162318090Y-94589654D01*
X162630887Y-94480202D01*
X162929461Y-94336416D01*
X163210060Y-94160104D01*
X163469153Y-93953484D01*
X163703484Y-93719153D01*
X163910104Y-93460060D01*
X164036157Y-93259448D01*
X168599500Y-93259448D01*
X168599500Y-93440551D01*
X168627829Y-93619410D01*
X168683787Y-93791636D01*
X168683788Y-93791639D01*
X168766006Y-93952997D01*
X168872441Y-94099494D01*
X168872445Y-94099499D01*
X169000500Y-94227554D01*
X169000505Y-94227558D01*
X169076773Y-94282969D01*
X169147006Y-94333996D01*
X169252484Y-94387740D01*
X169308360Y-94416211D01*
X169308363Y-94416212D01*
X169394476Y-94444191D01*
X169480591Y-94472171D01*
X169563429Y-94485291D01*
X169659449Y-94500500D01*
X169659454Y-94500500D01*
X169840551Y-94500500D01*
X169927259Y-94486765D01*
X170019409Y-94472171D01*
X170191639Y-94416211D01*
X170352994Y-94333996D01*
X170499501Y-94227553D01*
X170627553Y-94099501D01*
X170733996Y-93952994D01*
X170816211Y-93791639D01*
X170872171Y-93619409D01*
X170886765Y-93527259D01*
X170900500Y-93440551D01*
X170900500Y-93259448D01*
X170884019Y-93155397D01*
X170872171Y-93080591D01*
X170816211Y-92908361D01*
X170816211Y-92908360D01*
X170787740Y-92852484D01*
X170733996Y-92747006D01*
X170720396Y-92728287D01*
X170627558Y-92600505D01*
X170627554Y-92600500D01*
X170499499Y-92472445D01*
X170499494Y-92472441D01*
X170352997Y-92366006D01*
X170352996Y-92366005D01*
X170352994Y-92366004D01*
X170301300Y-92339664D01*
X170191639Y-92283788D01*
X170191636Y-92283787D01*
X170019410Y-92227829D01*
X169840551Y-92199500D01*
X169840546Y-92199500D01*
X169659454Y-92199500D01*
X169659449Y-92199500D01*
X169480589Y-92227829D01*
X169308363Y-92283787D01*
X169308360Y-92283788D01*
X169147002Y-92366006D01*
X169000505Y-92472441D01*
X169000500Y-92472445D01*
X168872445Y-92600500D01*
X168872441Y-92600505D01*
X168766006Y-92747002D01*
X168683788Y-92908360D01*
X168683787Y-92908363D01*
X168627829Y-93080589D01*
X168599500Y-93259448D01*
X164036157Y-93259448D01*
X164086416Y-93179461D01*
X164230202Y-92880887D01*
X164339654Y-92568090D01*
X164413396Y-92245006D01*
X164415332Y-92227829D01*
X164450499Y-91915703D01*
X164450500Y-91915699D01*
X164450500Y-91584300D01*
X164450499Y-91584296D01*
X164413398Y-91255008D01*
X164413397Y-91255003D01*
X164413396Y-91254994D01*
X164339654Y-90931910D01*
X164230202Y-90619113D01*
X164086416Y-90320539D01*
X163910104Y-90039940D01*
X163703484Y-89780847D01*
X163469153Y-89546516D01*
X163210060Y-89339896D01*
X162929461Y-89163584D01*
X162929458Y-89163582D01*
X162630890Y-89019799D01*
X162318101Y-88910349D01*
X162318093Y-88910346D01*
X162075777Y-88855039D01*
X161995006Y-88836604D01*
X161995003Y-88836603D01*
X161994991Y-88836601D01*
X161665703Y-88799500D01*
X161665697Y-88799500D01*
X161334303Y-88799500D01*
X161334296Y-88799500D01*
X161005008Y-88836601D01*
X161004994Y-88836604D01*
X160681906Y-88910346D01*
X160681898Y-88910349D01*
X160369109Y-89019799D01*
X160070541Y-89163582D01*
X159789941Y-89339895D01*
X159530847Y-89546515D01*
X159296515Y-89780847D01*
X159089895Y-90039941D01*
X158913582Y-90320541D01*
X158769799Y-90619109D01*
X158660349Y-90931898D01*
X158660346Y-90931906D01*
X158586604Y-91254994D01*
X158586601Y-91255008D01*
X158549500Y-91584296D01*
X152450499Y-91584296D01*
X152413398Y-91255008D01*
X152413397Y-91255003D01*
X152413396Y-91254994D01*
X152339654Y-90931910D01*
X152230202Y-90619113D01*
X152086416Y-90320539D01*
X151910104Y-90039940D01*
X151703484Y-89780847D01*
X151469153Y-89546516D01*
X151210060Y-89339896D01*
X150929461Y-89163584D01*
X150929458Y-89163582D01*
X150630890Y-89019799D01*
X150318101Y-88910349D01*
X150318093Y-88910346D01*
X150075777Y-88855039D01*
X149995006Y-88836604D01*
X149995003Y-88836603D01*
X149994991Y-88836601D01*
X149665703Y-88799500D01*
X149665697Y-88799500D01*
X149334303Y-88799500D01*
X149334296Y-88799500D01*
X149005008Y-88836601D01*
X149004994Y-88836604D01*
X148681906Y-88910346D01*
X148681898Y-88910349D01*
X148369109Y-89019799D01*
X148070541Y-89163582D01*
X147789941Y-89339895D01*
X147530847Y-89546515D01*
X147296515Y-89780847D01*
X147089895Y-90039941D01*
X146913582Y-90320541D01*
X146769799Y-90619109D01*
X146660349Y-90931898D01*
X146660346Y-90931906D01*
X146586604Y-91254994D01*
X146586601Y-91255008D01*
X146549500Y-91584296D01*
X125250500Y-91584296D01*
X125250500Y-82503750D01*
X125250726Y-82496263D01*
X125257644Y-82381902D01*
X125999500Y-82381902D01*
X125999500Y-82618097D01*
X126036446Y-82851368D01*
X126109433Y-83075996D01*
X126216657Y-83286433D01*
X126355483Y-83477510D01*
X126522490Y-83644517D01*
X126713567Y-83783343D01*
X126812991Y-83834002D01*
X126924003Y-83890566D01*
X126924005Y-83890566D01*
X126924008Y-83890568D01*
X127044412Y-83929689D01*
X127148631Y-83963553D01*
X127381903Y-84000500D01*
X127381908Y-84000500D01*
X127618097Y-84000500D01*
X127851368Y-83963553D01*
X128075992Y-83890568D01*
X128286433Y-83783343D01*
X128477510Y-83644517D01*
X128644517Y-83477510D01*
X128783343Y-83286433D01*
X128890568Y-83075992D01*
X128963553Y-82851368D01*
X129000500Y-82618097D01*
X129000500Y-82381902D01*
X170999500Y-82381902D01*
X170999500Y-82618097D01*
X171036446Y-82851368D01*
X171109433Y-83075996D01*
X171216657Y-83286433D01*
X171355483Y-83477510D01*
X171522490Y-83644517D01*
X171713567Y-83783343D01*
X171812991Y-83834002D01*
X171924003Y-83890566D01*
X171924005Y-83890566D01*
X171924008Y-83890568D01*
X172044412Y-83929689D01*
X172148631Y-83963553D01*
X172381903Y-84000500D01*
X172381908Y-84000500D01*
X172618097Y-84000500D01*
X172851368Y-83963553D01*
X173075992Y-83890568D01*
X173286433Y-83783343D01*
X173477510Y-83644517D01*
X173644517Y-83477510D01*
X173783343Y-83286433D01*
X173890568Y-83075992D01*
X173963553Y-82851368D01*
X174000500Y-82618097D01*
X174000500Y-82381902D01*
X173963553Y-82148631D01*
X173905198Y-81969034D01*
X173890568Y-81924008D01*
X173890566Y-81924005D01*
X173890566Y-81924003D01*
X173783342Y-81713566D01*
X173644517Y-81522490D01*
X173477510Y-81355483D01*
X173286433Y-81216657D01*
X173285601Y-81216233D01*
X173075996Y-81109433D01*
X172851368Y-81036446D01*
X172618097Y-80999500D01*
X172618092Y-80999500D01*
X172381908Y-80999500D01*
X172381903Y-80999500D01*
X172148631Y-81036446D01*
X171924003Y-81109433D01*
X171713566Y-81216657D01*
X171697189Y-81228556D01*
X171522490Y-81355483D01*
X171522488Y-81355485D01*
X171522487Y-81355485D01*
X171355485Y-81522487D01*
X171355485Y-81522488D01*
X171355483Y-81522490D01*
X171295862Y-81604550D01*
X171216657Y-81713566D01*
X171109433Y-81924003D01*
X171036446Y-82148631D01*
X170999500Y-82381902D01*
X129000500Y-82381902D01*
X128963553Y-82148631D01*
X128905198Y-81969034D01*
X128890568Y-81924008D01*
X128890566Y-81924005D01*
X128890566Y-81924003D01*
X128783342Y-81713566D01*
X128644517Y-81522490D01*
X128477510Y-81355483D01*
X128286433Y-81216657D01*
X128285601Y-81216233D01*
X128075996Y-81109433D01*
X127851368Y-81036446D01*
X127618097Y-80999500D01*
X127618092Y-80999500D01*
X127381908Y-80999500D01*
X127381903Y-80999500D01*
X127148631Y-81036446D01*
X126924003Y-81109433D01*
X126713566Y-81216657D01*
X126697189Y-81228556D01*
X126522490Y-81355483D01*
X126522488Y-81355485D01*
X126522487Y-81355485D01*
X126355485Y-81522487D01*
X126355485Y-81522488D01*
X126355483Y-81522490D01*
X126295862Y-81604550D01*
X126216657Y-81713566D01*
X126109433Y-81924003D01*
X126036446Y-82148631D01*
X125999500Y-82381902D01*
X125257644Y-82381902D01*
X125258391Y-82369549D01*
X125258391Y-82369548D01*
X125266448Y-82236340D01*
X125268253Y-82221475D01*
X125281602Y-82148631D01*
X125314515Y-81969026D01*
X125318095Y-81954505D01*
X125394451Y-81709471D01*
X125399753Y-81695489D01*
X125505095Y-81461430D01*
X125512040Y-81448197D01*
X125644826Y-81228542D01*
X125653313Y-81216246D01*
X125811608Y-81014198D01*
X125821523Y-81003007D01*
X126003007Y-80821523D01*
X126014198Y-80811608D01*
X126216246Y-80653313D01*
X126228542Y-80644826D01*
X126448197Y-80512040D01*
X126461430Y-80505095D01*
X126695489Y-80399753D01*
X126709471Y-80394451D01*
X126954505Y-80318095D01*
X126969026Y-80314515D01*
X127221476Y-80268252D01*
X127236335Y-80266448D01*
X127496264Y-80250726D01*
X127503751Y-80250500D01*
X127544170Y-80250500D01*
X172455830Y-80250500D01*
X172496249Y-80250500D01*
X172503736Y-80250726D01*
G37*
%TD.AperFunction*%
%TD*%
M02*
